ISO-10303-21;
HEADER;
/* Generated by software containing ST-Developer
 * from STEP Tools, Inc. (www.steptools.com) 
 */

FILE_DESCRIPTION(
/* description */ (''),
/* implementation_level */ '2;1');

FILE_NAME(
/* name */ 'rocker switch.step',
/* time_stamp */ '2023-05-02T12:19:15-04:00',
/* author */ (''),
/* organization */ (''),
/* preprocessor_version */ 'ST-DEVELOPER v19.2',
/* originating_system */ 'Autodesk Translation Framework v12.4.0.73',
/* authorisation */ '');

FILE_SCHEMA (('AUTOMOTIVE_DESIGN { 1 0 10303 214 3 1 1 }'));
ENDSEC;

DATA;
#10=MECHANICAL_DESIGN_GEOMETRIC_PRESENTATION_REPRESENTATION('',(#18,#19,
#20,#21,#22,#23),#1294);
#11=SHAPE_REPRESENTATION_RELATIONSHIP('SRR','None',#1304,#12);
#12=ADVANCED_BREP_SHAPE_REPRESENTATION('',(#24,#25,#26,#27,#28,#29),#1293);
#13=SPHERICAL_SURFACE('',#757,0.05);
#14=B_SPLINE_CURVE_WITH_KNOTS('',3,(#1234,#1235,#1236,#1237,#1238,#1239,
#1240,#1241,#1242,#1243,#1244,#1245,#1246,#1247,#1248,#1249,#1250),
 .UNSPECIFIED.,.T.,.F.,(4,1,1,1,1,1,1,1,1,1,1,1,1,1,4),(3.32806080834762,
3.803498066683,4.27893532501837,4.75437258335374,5.22980984168912,5.86372618613628,
6.18068435835987,6.49764253058345,7.13155887503062,7.4485170472542,8.08243339170136,
8.39939156392495,9.03330790837211,9.50874516670749,9.98418242504286),
 .UNSPECIFIED.);
#15=B_SPLINE_CURVE_WITH_KNOTS('',3,(#1252,#1253,#1254,#1255,#1256,#1257,
#1258),.UNSPECIFIED.,.F.,.F.,(4,1,1,1,4),(-9.98418242504286,-9.50874516670749,
-9.03330790837211,-8.39939156392495,-8.31008784497396),.UNSPECIFIED.);
#16=B_SPLINE_CURVE_WITH_KNOTS('',3,(#1259,#1260,#1261,#1262,#1263,#1264,
#1265,#1266,#1267,#1268,#1269,#1270,#1271,#1272),.UNSPECIFIED.,.F.,.F.,
(4,1,1,1,1,1,1,1,1,1,1,4),(-8.31008784497396,-8.08243339170136,-7.4485170472542,
-7.13155887503062,-6.49764253058345,-6.18068435835987,-5.86372618613628,
-5.22980984168912,-4.75437258335374,-4.27893532501837,-3.803498066683,-3.32806080834762),
 .UNSPECIFIED.);
#17=B_SPLINE_SURFACE_WITH_KNOTS('',3,3,((#1129,#1130,#1131,#1132,#1133,
#1134,#1135,#1136,#1137,#1138,#1139,#1140,#1141,#1142,#1143,#1144,#1145),
(#1146,#1147,#1148,#1149,#1150,#1151,#1152,#1153,#1154,#1155,#1156,#1157,
#1158,#1159,#1160,#1161,#1162),(#1163,#1164,#1165,#1166,#1167,#1168,#1169,
#1170,#1171,#1172,#1173,#1174,#1175,#1176,#1177,#1178,#1179),(#1180,#1181,
#1182,#1183,#1184,#1185,#1186,#1187,#1188,#1189,#1190,#1191,#1192,#1193,
#1194,#1195,#1196),(#1197,#1198,#1199,#1200,#1201,#1202,#1203,#1204,#1205,
#1206,#1207,#1208,#1209,#1210,#1211,#1212,#1213),(#1214,#1215,#1216,#1217,
#1218,#1219,#1220,#1221,#1222,#1223,#1224,#1225,#1226,#1227,#1228,#1229,
#1230)),.UNSPECIFIED.,.F.,.T.,.F.,(4,1,1,4),(4,1,1,1,1,1,1,1,1,1,1,1,1,
1,4),(0.,0.285714285714286,0.571428571428571,1.),(3.32806080834762,3.803498066683,
4.27893532501837,4.75437258335374,5.22980984168912,5.86372618613628,6.18068435835987,
6.49764253058345,7.13155887503062,7.4485170472542,8.08243339170136,8.39939156392495,
9.03330790837211,9.50874516670749,9.98418242504286),.UNSPECIFIED.);
#18=STYLED_ITEM('',(#1314),#24);
#19=STYLED_ITEM('',(#1315),#25);
#20=STYLED_ITEM('',(#1316),#26);
#21=STYLED_ITEM('',(#1316),#27);
#22=STYLED_ITEM('',(#1314),#28);
#23=STYLED_ITEM('',(#1317),#29);
#24=MANIFOLD_SOLID_BREP('Corps1',#671);
#25=MANIFOLD_SOLID_BREP('Corps5',#672);
#26=MANIFOLD_SOLID_BREP('Corps6',#673);
#27=MANIFOLD_SOLID_BREP('Corps7',#674);
#28=MANIFOLD_SOLID_BREP('Corps3',#675);
#29=MANIFOLD_SOLID_BREP('Corps4',#676);
#30=FACE_BOUND('',#127,.T.);
#31=FACE_BOUND('',#129,.T.);
#32=FACE_BOUND('',#134,.T.);
#33=FACE_BOUND('',#140,.T.);
#34=FACE_BOUND('',#146,.T.);
#35=FACE_BOUND('',#149,.T.);
#36=FACE_BOUND('',#156,.T.);
#37=FACE_BOUND('',#161,.T.);
#38=PLANE('',#695);
#39=PLANE('',#699);
#40=PLANE('',#703);
#41=PLANE('',#704);
#42=PLANE('',#713);
#43=PLANE('',#715);
#44=PLANE('',#718);
#45=PLANE('',#719);
#46=PLANE('',#720);
#47=PLANE('',#721);
#48=PLANE('',#728);
#49=PLANE('',#729);
#50=PLANE('',#733);
#51=PLANE('',#734);
#52=PLANE('',#735);
#53=PLANE('',#736);
#54=PLANE('',#743);
#55=PLANE('',#745);
#56=PLANE('',#748);
#57=PLANE('',#749);
#58=PLANE('',#750);
#59=PLANE('',#751);
#60=PLANE('',#756);
#61=PLANE('',#763);
#62=CYLINDRICAL_SURFACE('',#693,0.375);
#63=CYLINDRICAL_SURFACE('',#696,0.43061895078133);
#64=CYLINDRICAL_SURFACE('',#706,0.5);
#65=CYLINDRICAL_SURFACE('',#707,0.0316227762195164);
#66=CYLINDRICAL_SURFACE('',#710,0.08);
#67=CYLINDRICAL_SURFACE('',#716,0.08);
#68=CYLINDRICAL_SURFACE('',#722,0.0316227762195164);
#69=CYLINDRICAL_SURFACE('',#725,0.08);
#70=CYLINDRICAL_SURFACE('',#731,0.08);
#71=CYLINDRICAL_SURFACE('',#737,0.0316227762195164);
#72=CYLINDRICAL_SURFACE('',#740,0.08);
#73=CYLINDRICAL_SURFACE('',#746,0.08);
#74=CYLINDRICAL_SURFACE('',#753,2.54743574362691);
#75=CYLINDRICAL_SURFACE('',#754,0.43061895078133);
#76=CYLINDRICAL_SURFACE('',#761,0.05);
#77=FACE_OUTER_BOUND('',#120,.T.);
#78=FACE_OUTER_BOUND('',#121,.T.);
#79=FACE_OUTER_BOUND('',#122,.T.);
#80=FACE_OUTER_BOUND('',#123,.T.);
#81=FACE_OUTER_BOUND('',#124,.T.);
#82=FACE_OUTER_BOUND('',#125,.T.);
#83=FACE_OUTER_BOUND('',#126,.T.);
#84=FACE_OUTER_BOUND('',#128,.T.);
#85=FACE_OUTER_BOUND('',#130,.T.);
#86=FACE_OUTER_BOUND('',#131,.T.);
#87=FACE_OUTER_BOUND('',#132,.T.);
#88=FACE_OUTER_BOUND('',#133,.T.);
#89=FACE_OUTER_BOUND('',#135,.T.);
#90=FACE_OUTER_BOUND('',#136,.T.);
#91=FACE_OUTER_BOUND('',#137,.T.);
#92=FACE_OUTER_BOUND('',#138,.T.);
#93=FACE_OUTER_BOUND('',#139,.T.);
#94=FACE_OUTER_BOUND('',#141,.T.);
#95=FACE_OUTER_BOUND('',#142,.T.);
#96=FACE_OUTER_BOUND('',#143,.T.);
#97=FACE_OUTER_BOUND('',#144,.T.);
#98=FACE_OUTER_BOUND('',#145,.T.);
#99=FACE_OUTER_BOUND('',#147,.T.);
#100=FACE_OUTER_BOUND('',#148,.T.);
#101=FACE_OUTER_BOUND('',#150,.T.);
#102=FACE_OUTER_BOUND('',#151,.T.);
#103=FACE_OUTER_BOUND('',#152,.T.);
#104=FACE_OUTER_BOUND('',#153,.T.);
#105=FACE_OUTER_BOUND('',#154,.T.);
#106=FACE_OUTER_BOUND('',#155,.T.);
#107=FACE_OUTER_BOUND('',#157,.T.);
#108=FACE_OUTER_BOUND('',#158,.T.);
#109=FACE_OUTER_BOUND('',#159,.T.);
#110=FACE_OUTER_BOUND('',#160,.T.);
#111=FACE_OUTER_BOUND('',#162,.T.);
#112=FACE_OUTER_BOUND('',#163,.T.);
#113=FACE_OUTER_BOUND('',#164,.T.);
#114=FACE_OUTER_BOUND('',#165,.T.);
#115=FACE_OUTER_BOUND('',#166,.T.);
#116=FACE_OUTER_BOUND('',#167,.T.);
#117=FACE_OUTER_BOUND('',#168,.T.);
#118=FACE_OUTER_BOUND('',#169,.T.);
#119=FACE_OUTER_BOUND('',#170,.T.);
#120=EDGE_LOOP('',(#452,#453,#454,#455));
#121=EDGE_LOOP('',(#456,#457,#458,#459));
#122=EDGE_LOOP('',(#460));
#123=EDGE_LOOP('',(#461,#462,#463,#464));
#124=EDGE_LOOP('',(#465));
#125=EDGE_LOOP('',(#466,#467,#468,#469));
#126=EDGE_LOOP('',(#470));
#127=EDGE_LOOP('',(#471));
#128=EDGE_LOOP('',(#472));
#129=EDGE_LOOP('',(#473));
#130=EDGE_LOOP('',(#474,#475,#476,#477));
#131=EDGE_LOOP('',(#478,#479,#480,#481));
#132=EDGE_LOOP('',(#482,#483,#484,#485));
#133=EDGE_LOOP('',(#486,#487,#488,#489,#490,#491));
#134=EDGE_LOOP('',(#492));
#135=EDGE_LOOP('',(#493,#494,#495,#496));
#136=EDGE_LOOP('',(#497,#498,#499,#500));
#137=EDGE_LOOP('',(#501,#502,#503,#504));
#138=EDGE_LOOP('',(#505,#506,#507,#508));
#139=EDGE_LOOP('',(#509,#510,#511,#512,#513,#514));
#140=EDGE_LOOP('',(#515));
#141=EDGE_LOOP('',(#516,#517,#518,#519));
#142=EDGE_LOOP('',(#520,#521,#522,#523));
#143=EDGE_LOOP('',(#524,#525,#526,#527));
#144=EDGE_LOOP('',(#528,#529,#530,#531));
#145=EDGE_LOOP('',(#532,#533,#534,#535,#536,#537));
#146=EDGE_LOOP('',(#538));
#147=EDGE_LOOP('',(#539,#540,#541,#542));
#148=EDGE_LOOP('',(#543,#544,#545,#546,#547,#548));
#149=EDGE_LOOP('',(#549));
#150=EDGE_LOOP('',(#550,#551,#552,#553));
#151=EDGE_LOOP('',(#554,#555,#556,#557));
#152=EDGE_LOOP('',(#558,#559,#560,#561));
#153=EDGE_LOOP('',(#562,#563,#564,#565));
#154=EDGE_LOOP('',(#566,#567,#568,#569));
#155=EDGE_LOOP('',(#570,#571,#572,#573,#574,#575));
#156=EDGE_LOOP('',(#576));
#157=EDGE_LOOP('',(#577,#578,#579,#580));
#158=EDGE_LOOP('',(#581,#582,#583,#584));
#159=EDGE_LOOP('',(#585,#586,#587,#588));
#160=EDGE_LOOP('',(#589,#590,#591,#592,#593,#594));
#161=EDGE_LOOP('',(#595));
#162=EDGE_LOOP('',(#596,#597,#598,#599));
#163=EDGE_LOOP('',(#600,#601,#602,#603));
#164=EDGE_LOOP('',(#604,#605,#606,#607,#608));
#165=EDGE_LOOP('',(#609));
#166=EDGE_LOOP('',(#610,#611,#612,#613,#614));
#167=EDGE_LOOP('',(#615));
#168=EDGE_LOOP('',(#616,#617,#618,#619));
#169=EDGE_LOOP('',(#620,#621,#622,#623,#624));
#170=EDGE_LOOP('',(#625));
#171=LINE('',#971,#223);
#172=LINE('',#975,#224);
#173=LINE('',#982,#225);
#174=LINE('',#989,#226);
#175=LINE('',#996,#227);
#176=LINE('',#1001,#228);
#177=LINE('',#1008,#229);
#178=LINE('',#1011,#230);
#179=LINE('',#1014,#231);
#180=LINE('',#1018,#232);
#181=LINE('',#1020,#233);
#182=LINE('',#1021,#234);
#183=LINE('',#1024,#235);
#184=LINE('',#1025,#236);
#185=LINE('',#1029,#237);
#186=LINE('',#1032,#238);
#187=LINE('',#1033,#239);
#188=LINE('',#1036,#240);
#189=LINE('',#1037,#241);
#190=LINE('',#1039,#242);
#191=LINE('',#1045,#243);
#192=LINE('',#1052,#244);
#193=LINE('',#1055,#245);
#194=LINE('',#1058,#246);
#195=LINE('',#1060,#247);
#196=LINE('',#1061,#248);
#197=LINE('',#1064,#249);
#198=LINE('',#1066,#250);
#199=LINE('',#1068,#251);
#200=LINE('',#1073,#252);
#201=LINE('',#1076,#253);
#202=LINE('',#1078,#254);
#203=LINE('',#1079,#255);
#204=LINE('',#1081,#256);
#205=LINE('',#1083,#257);
#206=LINE('',#1089,#258);
#207=LINE('',#1096,#259);
#208=LINE('',#1099,#260);
#209=LINE('',#1102,#261);
#210=LINE('',#1106,#262);
#211=LINE('',#1108,#263);
#212=LINE('',#1109,#264);
#213=LINE('',#1112,#265);
#214=LINE('',#1113,#266);
#215=LINE('',#1117,#267);
#216=LINE('',#1120,#268);
#217=LINE('',#1121,#269);
#218=LINE('',#1124,#270);
#219=LINE('',#1125,#271);
#220=LINE('',#1127,#272);
#221=LINE('',#1276,#273);
#222=LINE('',#1288,#274);
#223=VECTOR('',#770,0.345);
#224=VECTOR('',#775,0.375);
#225=VECTOR('',#784,0.43061895078133);
#226=VECTOR('',#793,0.5);
#227=VECTOR('',#804,0.5);
#228=VECTOR('',#809,0.0316227762195164);
#229=VECTOR('',#816,0.393700787401575);
#230=VECTOR('',#819,0.393700787401575);
#231=VECTOR('',#822,0.393700787401575);
#232=VECTOR('',#825,0.393700787401575);
#233=VECTOR('',#826,0.393700787401575);
#234=VECTOR('',#827,0.393700787401575);
#235=VECTOR('',#830,0.393700787401575);
#236=VECTOR('',#831,0.393700787401575);
#237=VECTOR('',#836,0.393700787401575);
#238=VECTOR('',#839,0.393700787401575);
#239=VECTOR('',#840,0.393700787401575);
#240=VECTOR('',#843,0.393700787401575);
#241=VECTOR('',#844,0.393700787401575);
#242=VECTOR('',#847,0.393700787401575);
#243=VECTOR('',#854,0.0316227762195164);
#244=VECTOR('',#861,0.393700787401575);
#245=VECTOR('',#864,0.393700787401575);
#246=VECTOR('',#867,0.393700787401575);
#247=VECTOR('',#868,0.393700787401575);
#248=VECTOR('',#869,0.393700787401575);
#249=VECTOR('',#872,0.393700787401575);
#250=VECTOR('',#873,0.393700787401575);
#251=VECTOR('',#874,0.393700787401575);
#252=VECTOR('',#881,0.393700787401575);
#253=VECTOR('',#884,0.393700787401575);
#254=VECTOR('',#885,0.393700787401575);
#255=VECTOR('',#886,0.393700787401575);
#256=VECTOR('',#889,0.393700787401575);
#257=VECTOR('',#892,0.393700787401575);
#258=VECTOR('',#899,0.0316227762195164);
#259=VECTOR('',#906,0.393700787401575);
#260=VECTOR('',#909,0.393700787401575);
#261=VECTOR('',#912,0.393700787401575);
#262=VECTOR('',#915,0.393700787401575);
#263=VECTOR('',#916,0.393700787401575);
#264=VECTOR('',#917,0.393700787401575);
#265=VECTOR('',#920,0.393700787401575);
#266=VECTOR('',#921,0.393700787401575);
#267=VECTOR('',#926,0.393700787401575);
#268=VECTOR('',#929,0.393700787401575);
#269=VECTOR('',#930,0.393700787401575);
#270=VECTOR('',#933,0.393700787401575);
#271=VECTOR('',#934,0.393700787401575);
#272=VECTOR('',#937,0.393700787401575);
#273=VECTOR('',#946,0.43061895078133);
#274=VECTOR('',#961,0.05);
#275=CIRCLE('',#691,0.315);
#276=CIRCLE('',#692,0.375);
#277=CIRCLE('',#694,0.375);
#278=CIRCLE('',#697,0.43061895078133);
#279=CIRCLE('',#698,0.43061895078133);
#280=CIRCLE('',#701,0.48180148828669);
#281=CIRCLE('',#702,0.5);
#282=CIRCLE('',#705,0.5);
#283=CIRCLE('',#708,0.0316227762195164);
#284=CIRCLE('',#709,0.0316227762195164);
#285=CIRCLE('',#711,0.08);
#286=CIRCLE('',#712,0.08);
#287=CIRCLE('',#714,0.08);
#288=CIRCLE('',#717,0.08);
#289=CIRCLE('',#723,0.0316227762195164);
#290=CIRCLE('',#724,0.0316227762195164);
#291=CIRCLE('',#726,0.08);
#292=CIRCLE('',#727,0.08);
#293=CIRCLE('',#730,0.08);
#294=CIRCLE('',#732,0.08);
#295=CIRCLE('',#738,0.0316227762195164);
#296=CIRCLE('',#739,0.0316227762195164);
#297=CIRCLE('',#741,0.08);
#298=CIRCLE('',#742,0.08);
#299=CIRCLE('',#744,0.08);
#300=CIRCLE('',#747,0.08);
#301=CIRCLE('',#752,0.0200000000000001);
#302=CIRCLE('',#755,0.43061895078133);
#303=CIRCLE('',#758,0.05);
#304=CIRCLE('',#759,0.05);
#305=CIRCLE('',#760,0.05);
#306=CIRCLE('',#762,0.05);
#307=VERTEX_POINT('',#968);
#308=VERTEX_POINT('',#970);
#309=VERTEX_POINT('',#974);
#310=VERTEX_POINT('',#979);
#311=VERTEX_POINT('',#981);
#312=VERTEX_POINT('',#986);
#313=VERTEX_POINT('',#988);
#314=VERTEX_POINT('',#993);
#315=VERTEX_POINT('',#998);
#316=VERTEX_POINT('',#1000);
#317=VERTEX_POINT('',#1004);
#318=VERTEX_POINT('',#1005);
#319=VERTEX_POINT('',#1007);
#320=VERTEX_POINT('',#1009);
#321=VERTEX_POINT('',#1013);
#322=VERTEX_POINT('',#1015);
#323=VERTEX_POINT('',#1017);
#324=VERTEX_POINT('',#1019);
#325=VERTEX_POINT('',#1023);
#326=VERTEX_POINT('',#1027);
#327=VERTEX_POINT('',#1031);
#328=VERTEX_POINT('',#1035);
#329=VERTEX_POINT('',#1042);
#330=VERTEX_POINT('',#1044);
#331=VERTEX_POINT('',#1048);
#332=VERTEX_POINT('',#1049);
#333=VERTEX_POINT('',#1051);
#334=VERTEX_POINT('',#1053);
#335=VERTEX_POINT('',#1057);
#336=VERTEX_POINT('',#1059);
#337=VERTEX_POINT('',#1063);
#338=VERTEX_POINT('',#1065);
#339=VERTEX_POINT('',#1067);
#340=VERTEX_POINT('',#1071);
#341=VERTEX_POINT('',#1075);
#342=VERTEX_POINT('',#1077);
#343=VERTEX_POINT('',#1086);
#344=VERTEX_POINT('',#1088);
#345=VERTEX_POINT('',#1092);
#346=VERTEX_POINT('',#1093);
#347=VERTEX_POINT('',#1095);
#348=VERTEX_POINT('',#1097);
#349=VERTEX_POINT('',#1101);
#350=VERTEX_POINT('',#1103);
#351=VERTEX_POINT('',#1105);
#352=VERTEX_POINT('',#1107);
#353=VERTEX_POINT('',#1111);
#354=VERTEX_POINT('',#1115);
#355=VERTEX_POINT('',#1119);
#356=VERTEX_POINT('',#1123);
#357=VERTEX_POINT('',#1231);
#358=VERTEX_POINT('',#1232);
#359=VERTEX_POINT('',#1251);
#360=VERTEX_POINT('',#1275);
#361=VERTEX_POINT('',#1280);
#362=VERTEX_POINT('',#1281);
#363=VERTEX_POINT('',#1283);
#364=VERTEX_POINT('',#1287);
#365=EDGE_CURVE('',#307,#307,#275,.T.);
#366=EDGE_CURVE('',#307,#308,#171,.T.);
#367=EDGE_CURVE('',#308,#308,#276,.T.);
#368=EDGE_CURVE('',#308,#309,#172,.T.);
#369=EDGE_CURVE('',#309,#309,#277,.T.);
#370=EDGE_CURVE('',#310,#310,#278,.T.);
#371=EDGE_CURVE('',#310,#311,#173,.T.);
#372=EDGE_CURVE('',#311,#311,#279,.T.);
#373=EDGE_CURVE('',#312,#312,#280,.T.);
#374=EDGE_CURVE('',#312,#313,#174,.T.);
#375=EDGE_CURVE('',#313,#313,#281,.T.);
#376=EDGE_CURVE('',#314,#314,#282,.T.);
#377=EDGE_CURVE('',#313,#314,#175,.T.);
#378=EDGE_CURVE('',#315,#315,#283,.T.);
#379=EDGE_CURVE('',#315,#316,#176,.T.);
#380=EDGE_CURVE('',#316,#316,#284,.T.);
#381=EDGE_CURVE('',#317,#318,#285,.T.);
#382=EDGE_CURVE('',#318,#319,#177,.T.);
#383=EDGE_CURVE('',#319,#320,#286,.T.);
#384=EDGE_CURVE('',#320,#317,#178,.T.);
#385=EDGE_CURVE('',#321,#319,#179,.T.);
#386=EDGE_CURVE('',#322,#321,#287,.T.);
#387=EDGE_CURVE('',#323,#322,#180,.T.);
#388=EDGE_CURVE('',#324,#323,#181,.T.);
#389=EDGE_CURVE('',#324,#320,#182,.T.);
#390=EDGE_CURVE('',#318,#325,#183,.T.);
#391=EDGE_CURVE('',#321,#325,#184,.T.);
#392=EDGE_CURVE('',#325,#326,#288,.T.);
#393=EDGE_CURVE('',#326,#322,#185,.T.);
#394=EDGE_CURVE('',#327,#324,#186,.T.);
#395=EDGE_CURVE('',#327,#317,#187,.T.);
#396=EDGE_CURVE('',#328,#326,#188,.T.);
#397=EDGE_CURVE('',#323,#328,#189,.T.);
#398=EDGE_CURVE('',#328,#327,#190,.T.);
#399=EDGE_CURVE('',#329,#329,#289,.T.);
#400=EDGE_CURVE('',#329,#330,#191,.T.);
#401=EDGE_CURVE('',#330,#330,#290,.T.);
#402=EDGE_CURVE('',#331,#332,#291,.T.);
#403=EDGE_CURVE('',#332,#333,#192,.T.);
#404=EDGE_CURVE('',#333,#334,#292,.T.);
#405=EDGE_CURVE('',#334,#331,#193,.T.);
#406=EDGE_CURVE('',#332,#335,#194,.T.);
#407=EDGE_CURVE('',#336,#335,#195,.T.);
#408=EDGE_CURVE('',#336,#333,#196,.T.);
#409=EDGE_CURVE('',#337,#331,#197,.T.);
#410=EDGE_CURVE('',#338,#337,#198,.T.);
#411=EDGE_CURVE('',#338,#339,#199,.T.);
#412=EDGE_CURVE('',#335,#339,#293,.T.);
#413=EDGE_CURVE('',#340,#336,#294,.T.);
#414=EDGE_CURVE('',#339,#340,#200,.T.);
#415=EDGE_CURVE('',#341,#340,#201,.T.);
#416=EDGE_CURVE('',#342,#341,#202,.T.);
#417=EDGE_CURVE('',#342,#334,#203,.T.);
#418=EDGE_CURVE('',#341,#338,#204,.T.);
#419=EDGE_CURVE('',#337,#342,#205,.T.);
#420=EDGE_CURVE('',#343,#343,#295,.T.);
#421=EDGE_CURVE('',#343,#344,#206,.T.);
#422=EDGE_CURVE('',#344,#344,#296,.T.);
#423=EDGE_CURVE('',#345,#346,#297,.T.);
#424=EDGE_CURVE('',#346,#347,#207,.T.);
#425=EDGE_CURVE('',#347,#348,#298,.T.);
#426=EDGE_CURVE('',#348,#345,#208,.T.);
#427=EDGE_CURVE('',#349,#347,#209,.T.);
#428=EDGE_CURVE('',#350,#349,#299,.T.);
#429=EDGE_CURVE('',#351,#350,#210,.T.);
#430=EDGE_CURVE('',#351,#352,#211,.T.);
#431=EDGE_CURVE('',#352,#348,#212,.T.);
#432=EDGE_CURVE('',#346,#353,#213,.T.);
#433=EDGE_CURVE('',#349,#353,#214,.T.);
#434=EDGE_CURVE('',#353,#354,#300,.T.);
#435=EDGE_CURVE('',#354,#350,#215,.T.);
#436=EDGE_CURVE('',#355,#354,#216,.T.);
#437=EDGE_CURVE('',#355,#351,#217,.T.);
#438=EDGE_CURVE('',#356,#345,#218,.T.);
#439=EDGE_CURVE('',#356,#355,#219,.T.);
#440=EDGE_CURVE('',#352,#356,#220,.T.);
#441=EDGE_CURVE('',#357,#358,#301,.T.);
#442=EDGE_CURVE('',#358,#358,#14,.T.);
#443=EDGE_CURVE('',#357,#359,#15,.T.);
#444=EDGE_CURVE('',#359,#357,#16,.T.);
#445=EDGE_CURVE('',#359,#360,#221,.T.);
#446=EDGE_CURVE('',#360,#360,#302,.T.);
#447=EDGE_CURVE('',#361,#362,#303,.T.);
#448=EDGE_CURVE('',#362,#363,#304,.T.);
#449=EDGE_CURVE('',#362,#361,#305,.T.);
#450=EDGE_CURVE('',#361,#364,#222,.T.);
#451=EDGE_CURVE('',#364,#364,#306,.T.);
#452=ORIENTED_EDGE('',*,*,#365,.T.);
#453=ORIENTED_EDGE('',*,*,#366,.T.);
#454=ORIENTED_EDGE('',*,*,#367,.T.);
#455=ORIENTED_EDGE('',*,*,#366,.F.);
#456=ORIENTED_EDGE('',*,*,#367,.F.);
#457=ORIENTED_EDGE('',*,*,#368,.T.);
#458=ORIENTED_EDGE('',*,*,#369,.T.);
#459=ORIENTED_EDGE('',*,*,#368,.F.);
#460=ORIENTED_EDGE('',*,*,#365,.F.);
#461=ORIENTED_EDGE('',*,*,#370,.F.);
#462=ORIENTED_EDGE('',*,*,#371,.T.);
#463=ORIENTED_EDGE('',*,*,#372,.T.);
#464=ORIENTED_EDGE('',*,*,#371,.F.);
#465=ORIENTED_EDGE('',*,*,#372,.F.);
#466=ORIENTED_EDGE('',*,*,#373,.T.);
#467=ORIENTED_EDGE('',*,*,#374,.T.);
#468=ORIENTED_EDGE('',*,*,#375,.T.);
#469=ORIENTED_EDGE('',*,*,#374,.F.);
#470=ORIENTED_EDGE('',*,*,#373,.F.);
#471=ORIENTED_EDGE('',*,*,#370,.T.);
#472=ORIENTED_EDGE('',*,*,#376,.F.);
#473=ORIENTED_EDGE('',*,*,#369,.F.);
#474=ORIENTED_EDGE('',*,*,#375,.F.);
#475=ORIENTED_EDGE('',*,*,#377,.T.);
#476=ORIENTED_EDGE('',*,*,#376,.T.);
#477=ORIENTED_EDGE('',*,*,#377,.F.);
#478=ORIENTED_EDGE('',*,*,#378,.F.);
#479=ORIENTED_EDGE('',*,*,#379,.T.);
#480=ORIENTED_EDGE('',*,*,#380,.F.);
#481=ORIENTED_EDGE('',*,*,#379,.F.);
#482=ORIENTED_EDGE('',*,*,#381,.T.);
#483=ORIENTED_EDGE('',*,*,#382,.T.);
#484=ORIENTED_EDGE('',*,*,#383,.T.);
#485=ORIENTED_EDGE('',*,*,#384,.T.);
#486=ORIENTED_EDGE('',*,*,#383,.F.);
#487=ORIENTED_EDGE('',*,*,#385,.F.);
#488=ORIENTED_EDGE('',*,*,#386,.F.);
#489=ORIENTED_EDGE('',*,*,#387,.F.);
#490=ORIENTED_EDGE('',*,*,#388,.F.);
#491=ORIENTED_EDGE('',*,*,#389,.T.);
#492=ORIENTED_EDGE('',*,*,#380,.T.);
#493=ORIENTED_EDGE('',*,*,#382,.F.);
#494=ORIENTED_EDGE('',*,*,#390,.T.);
#495=ORIENTED_EDGE('',*,*,#391,.F.);
#496=ORIENTED_EDGE('',*,*,#385,.T.);
#497=ORIENTED_EDGE('',*,*,#386,.T.);
#498=ORIENTED_EDGE('',*,*,#391,.T.);
#499=ORIENTED_EDGE('',*,*,#392,.T.);
#500=ORIENTED_EDGE('',*,*,#393,.T.);
#501=ORIENTED_EDGE('',*,*,#384,.F.);
#502=ORIENTED_EDGE('',*,*,#389,.F.);
#503=ORIENTED_EDGE('',*,*,#394,.F.);
#504=ORIENTED_EDGE('',*,*,#395,.T.);
#505=ORIENTED_EDGE('',*,*,#393,.F.);
#506=ORIENTED_EDGE('',*,*,#396,.F.);
#507=ORIENTED_EDGE('',*,*,#397,.F.);
#508=ORIENTED_EDGE('',*,*,#387,.T.);
#509=ORIENTED_EDGE('',*,*,#381,.F.);
#510=ORIENTED_EDGE('',*,*,#395,.F.);
#511=ORIENTED_EDGE('',*,*,#398,.F.);
#512=ORIENTED_EDGE('',*,*,#396,.T.);
#513=ORIENTED_EDGE('',*,*,#392,.F.);
#514=ORIENTED_EDGE('',*,*,#390,.F.);
#515=ORIENTED_EDGE('',*,*,#378,.T.);
#516=ORIENTED_EDGE('',*,*,#398,.T.);
#517=ORIENTED_EDGE('',*,*,#394,.T.);
#518=ORIENTED_EDGE('',*,*,#388,.T.);
#519=ORIENTED_EDGE('',*,*,#397,.T.);
#520=ORIENTED_EDGE('',*,*,#399,.F.);
#521=ORIENTED_EDGE('',*,*,#400,.T.);
#522=ORIENTED_EDGE('',*,*,#401,.F.);
#523=ORIENTED_EDGE('',*,*,#400,.F.);
#524=ORIENTED_EDGE('',*,*,#402,.T.);
#525=ORIENTED_EDGE('',*,*,#403,.T.);
#526=ORIENTED_EDGE('',*,*,#404,.T.);
#527=ORIENTED_EDGE('',*,*,#405,.T.);
#528=ORIENTED_EDGE('',*,*,#403,.F.);
#529=ORIENTED_EDGE('',*,*,#406,.T.);
#530=ORIENTED_EDGE('',*,*,#407,.F.);
#531=ORIENTED_EDGE('',*,*,#408,.T.);
#532=ORIENTED_EDGE('',*,*,#402,.F.);
#533=ORIENTED_EDGE('',*,*,#409,.F.);
#534=ORIENTED_EDGE('',*,*,#410,.F.);
#535=ORIENTED_EDGE('',*,*,#411,.T.);
#536=ORIENTED_EDGE('',*,*,#412,.F.);
#537=ORIENTED_EDGE('',*,*,#406,.F.);
#538=ORIENTED_EDGE('',*,*,#401,.T.);
#539=ORIENTED_EDGE('',*,*,#413,.T.);
#540=ORIENTED_EDGE('',*,*,#407,.T.);
#541=ORIENTED_EDGE('',*,*,#412,.T.);
#542=ORIENTED_EDGE('',*,*,#414,.T.);
#543=ORIENTED_EDGE('',*,*,#404,.F.);
#544=ORIENTED_EDGE('',*,*,#408,.F.);
#545=ORIENTED_EDGE('',*,*,#413,.F.);
#546=ORIENTED_EDGE('',*,*,#415,.F.);
#547=ORIENTED_EDGE('',*,*,#416,.F.);
#548=ORIENTED_EDGE('',*,*,#417,.T.);
#549=ORIENTED_EDGE('',*,*,#399,.T.);
#550=ORIENTED_EDGE('',*,*,#414,.F.);
#551=ORIENTED_EDGE('',*,*,#411,.F.);
#552=ORIENTED_EDGE('',*,*,#418,.F.);
#553=ORIENTED_EDGE('',*,*,#415,.T.);
#554=ORIENTED_EDGE('',*,*,#405,.F.);
#555=ORIENTED_EDGE('',*,*,#417,.F.);
#556=ORIENTED_EDGE('',*,*,#419,.F.);
#557=ORIENTED_EDGE('',*,*,#409,.T.);
#558=ORIENTED_EDGE('',*,*,#416,.T.);
#559=ORIENTED_EDGE('',*,*,#418,.T.);
#560=ORIENTED_EDGE('',*,*,#410,.T.);
#561=ORIENTED_EDGE('',*,*,#419,.T.);
#562=ORIENTED_EDGE('',*,*,#420,.F.);
#563=ORIENTED_EDGE('',*,*,#421,.T.);
#564=ORIENTED_EDGE('',*,*,#422,.F.);
#565=ORIENTED_EDGE('',*,*,#421,.F.);
#566=ORIENTED_EDGE('',*,*,#423,.T.);
#567=ORIENTED_EDGE('',*,*,#424,.T.);
#568=ORIENTED_EDGE('',*,*,#425,.T.);
#569=ORIENTED_EDGE('',*,*,#426,.T.);
#570=ORIENTED_EDGE('',*,*,#425,.F.);
#571=ORIENTED_EDGE('',*,*,#427,.F.);
#572=ORIENTED_EDGE('',*,*,#428,.F.);
#573=ORIENTED_EDGE('',*,*,#429,.F.);
#574=ORIENTED_EDGE('',*,*,#430,.T.);
#575=ORIENTED_EDGE('',*,*,#431,.T.);
#576=ORIENTED_EDGE('',*,*,#422,.T.);
#577=ORIENTED_EDGE('',*,*,#424,.F.);
#578=ORIENTED_EDGE('',*,*,#432,.T.);
#579=ORIENTED_EDGE('',*,*,#433,.F.);
#580=ORIENTED_EDGE('',*,*,#427,.T.);
#581=ORIENTED_EDGE('',*,*,#428,.T.);
#582=ORIENTED_EDGE('',*,*,#433,.T.);
#583=ORIENTED_EDGE('',*,*,#434,.T.);
#584=ORIENTED_EDGE('',*,*,#435,.T.);
#585=ORIENTED_EDGE('',*,*,#435,.F.);
#586=ORIENTED_EDGE('',*,*,#436,.F.);
#587=ORIENTED_EDGE('',*,*,#437,.T.);
#588=ORIENTED_EDGE('',*,*,#429,.T.);
#589=ORIENTED_EDGE('',*,*,#423,.F.);
#590=ORIENTED_EDGE('',*,*,#438,.F.);
#591=ORIENTED_EDGE('',*,*,#439,.T.);
#592=ORIENTED_EDGE('',*,*,#436,.T.);
#593=ORIENTED_EDGE('',*,*,#434,.F.);
#594=ORIENTED_EDGE('',*,*,#432,.F.);
#595=ORIENTED_EDGE('',*,*,#420,.T.);
#596=ORIENTED_EDGE('',*,*,#426,.F.);
#597=ORIENTED_EDGE('',*,*,#431,.F.);
#598=ORIENTED_EDGE('',*,*,#440,.T.);
#599=ORIENTED_EDGE('',*,*,#438,.T.);
#600=ORIENTED_EDGE('',*,*,#440,.F.);
#601=ORIENTED_EDGE('',*,*,#430,.F.);
#602=ORIENTED_EDGE('',*,*,#437,.F.);
#603=ORIENTED_EDGE('',*,*,#439,.F.);
#604=ORIENTED_EDGE('',*,*,#441,.T.);
#605=ORIENTED_EDGE('',*,*,#442,.T.);
#606=ORIENTED_EDGE('',*,*,#441,.F.);
#607=ORIENTED_EDGE('',*,*,#443,.T.);
#608=ORIENTED_EDGE('',*,*,#444,.T.);
#609=ORIENTED_EDGE('',*,*,#442,.F.);
#610=ORIENTED_EDGE('',*,*,#443,.F.);
#611=ORIENTED_EDGE('',*,*,#444,.F.);
#612=ORIENTED_EDGE('',*,*,#445,.T.);
#613=ORIENTED_EDGE('',*,*,#446,.F.);
#614=ORIENTED_EDGE('',*,*,#445,.F.);
#615=ORIENTED_EDGE('',*,*,#446,.T.);
#616=ORIENTED_EDGE('',*,*,#447,.T.);
#617=ORIENTED_EDGE('',*,*,#448,.T.);
#618=ORIENTED_EDGE('',*,*,#448,.F.);
#619=ORIENTED_EDGE('',*,*,#449,.T.);
#620=ORIENTED_EDGE('',*,*,#447,.F.);
#621=ORIENTED_EDGE('',*,*,#450,.T.);
#622=ORIENTED_EDGE('',*,*,#451,.F.);
#623=ORIENTED_EDGE('',*,*,#450,.F.);
#624=ORIENTED_EDGE('',*,*,#449,.F.);
#625=ORIENTED_EDGE('',*,*,#451,.T.);
#626=CONICAL_SURFACE('',#690,0.345,0.785398163397448);
#627=CONICAL_SURFACE('',#700,0.5,0.349065850398866);
#628=ADVANCED_FACE('',(#77),#626,.T.);
#629=ADVANCED_FACE('',(#78),#62,.T.);
#630=ADVANCED_FACE('',(#79),#38,.T.);
#631=ADVANCED_FACE('',(#80),#63,.F.);
#632=ADVANCED_FACE('',(#81),#39,.T.);
#633=ADVANCED_FACE('',(#82),#627,.T.);
#634=ADVANCED_FACE('',(#83,#30),#40,.T.);
#635=ADVANCED_FACE('',(#84,#31),#41,.F.);
#636=ADVANCED_FACE('',(#85),#64,.T.);
#637=ADVANCED_FACE('',(#86),#65,.F.);
#638=ADVANCED_FACE('',(#87),#66,.T.);
#639=ADVANCED_FACE('',(#88,#32),#42,.T.);
#640=ADVANCED_FACE('',(#89),#43,.T.);
#641=ADVANCED_FACE('',(#90),#67,.T.);
#642=ADVANCED_FACE('',(#91),#44,.T.);
#643=ADVANCED_FACE('',(#92),#45,.T.);
#644=ADVANCED_FACE('',(#93,#33),#46,.T.);
#645=ADVANCED_FACE('',(#94),#47,.F.);
#646=ADVANCED_FACE('',(#95),#68,.F.);
#647=ADVANCED_FACE('',(#96),#69,.T.);
#648=ADVANCED_FACE('',(#97),#48,.T.);
#649=ADVANCED_FACE('',(#98,#34),#49,.T.);
#650=ADVANCED_FACE('',(#99),#70,.T.);
#651=ADVANCED_FACE('',(#100,#35),#50,.T.);
#652=ADVANCED_FACE('',(#101),#51,.T.);
#653=ADVANCED_FACE('',(#102),#52,.T.);
#654=ADVANCED_FACE('',(#103),#53,.F.);
#655=ADVANCED_FACE('',(#104),#71,.F.);
#656=ADVANCED_FACE('',(#105),#72,.T.);
#657=ADVANCED_FACE('',(#106,#36),#54,.T.);
#658=ADVANCED_FACE('',(#107),#55,.T.);
#659=ADVANCED_FACE('',(#108),#73,.T.);
#660=ADVANCED_FACE('',(#109),#56,.T.);
#661=ADVANCED_FACE('',(#110,#37),#57,.T.);
#662=ADVANCED_FACE('',(#111),#58,.T.);
#663=ADVANCED_FACE('',(#112),#59,.F.);
#664=ADVANCED_FACE('',(#113),#17,.F.);
#665=ADVANCED_FACE('',(#114),#74,.F.);
#666=ADVANCED_FACE('',(#115),#75,.T.);
#667=ADVANCED_FACE('',(#116),#60,.F.);
#668=ADVANCED_FACE('',(#117),#13,.T.);
#669=ADVANCED_FACE('',(#118),#76,.T.);
#670=ADVANCED_FACE('',(#119),#61,.T.);
#671=CLOSED_SHELL('',(#628,#629,#630,#631,#632,#633,#634,#635,#636));
#672=CLOSED_SHELL('',(#637,#638,#639,#640,#641,#642,#643,#644,#645));
#673=CLOSED_SHELL('',(#646,#647,#648,#649,#650,#651,#652,#653,#654));
#674=CLOSED_SHELL('',(#655,#656,#657,#658,#659,#660,#661,#662,#663));
#675=CLOSED_SHELL('',(#664,#665,#666,#667));
#676=CLOSED_SHELL('',(#668,#669,#670));
#677=DERIVED_UNIT_ELEMENT(#679,1.);
#678=DERIVED_UNIT_ELEMENT(#1298,-3.);
#679=(
MASS_UNIT()
NAMED_UNIT(*)
SI_UNIT(.KILO.,.GRAM.)
);
#680=DERIVED_UNIT((#677,#678));
#681=MEASURE_REPRESENTATION_ITEM('density measure',
POSITIVE_RATIO_MEASURE(7850.),#680);
#682=PROPERTY_DEFINITION_REPRESENTATION(#687,#684);
#683=PROPERTY_DEFINITION_REPRESENTATION(#688,#685);
#684=REPRESENTATION('material name',(#686),#1293);
#685=REPRESENTATION('density',(#681),#1293);
#686=DESCRIPTIVE_REPRESENTATION_ITEM('Acier','Acier');
#687=PROPERTY_DEFINITION('material property','material name',#1306);
#688=PROPERTY_DEFINITION('material property','density of part',#1306);
#689=AXIS2_PLACEMENT_3D('',#966,#764,#765);
#690=AXIS2_PLACEMENT_3D('',#967,#766,#767);
#691=AXIS2_PLACEMENT_3D('',#969,#768,#769);
#692=AXIS2_PLACEMENT_3D('',#972,#771,#772);
#693=AXIS2_PLACEMENT_3D('',#973,#773,#774);
#694=AXIS2_PLACEMENT_3D('',#976,#776,#777);
#695=AXIS2_PLACEMENT_3D('',#977,#778,#779);
#696=AXIS2_PLACEMENT_3D('',#978,#780,#781);
#697=AXIS2_PLACEMENT_3D('',#980,#782,#783);
#698=AXIS2_PLACEMENT_3D('',#983,#785,#786);
#699=AXIS2_PLACEMENT_3D('',#984,#787,#788);
#700=AXIS2_PLACEMENT_3D('',#985,#789,#790);
#701=AXIS2_PLACEMENT_3D('',#987,#791,#792);
#702=AXIS2_PLACEMENT_3D('',#990,#794,#795);
#703=AXIS2_PLACEMENT_3D('',#991,#796,#797);
#704=AXIS2_PLACEMENT_3D('',#992,#798,#799);
#705=AXIS2_PLACEMENT_3D('',#994,#800,#801);
#706=AXIS2_PLACEMENT_3D('',#995,#802,#803);
#707=AXIS2_PLACEMENT_3D('',#997,#805,#806);
#708=AXIS2_PLACEMENT_3D('',#999,#807,#808);
#709=AXIS2_PLACEMENT_3D('',#1002,#810,#811);
#710=AXIS2_PLACEMENT_3D('',#1003,#812,#813);
#711=AXIS2_PLACEMENT_3D('',#1006,#814,#815);
#712=AXIS2_PLACEMENT_3D('',#1010,#817,#818);
#713=AXIS2_PLACEMENT_3D('',#1012,#820,#821);
#714=AXIS2_PLACEMENT_3D('',#1016,#823,#824);
#715=AXIS2_PLACEMENT_3D('',#1022,#828,#829);
#716=AXIS2_PLACEMENT_3D('',#1026,#832,#833);
#717=AXIS2_PLACEMENT_3D('',#1028,#834,#835);
#718=AXIS2_PLACEMENT_3D('',#1030,#837,#838);
#719=AXIS2_PLACEMENT_3D('',#1034,#841,#842);
#720=AXIS2_PLACEMENT_3D('',#1038,#845,#846);
#721=AXIS2_PLACEMENT_3D('',#1040,#848,#849);
#722=AXIS2_PLACEMENT_3D('',#1041,#850,#851);
#723=AXIS2_PLACEMENT_3D('',#1043,#852,#853);
#724=AXIS2_PLACEMENT_3D('',#1046,#855,#856);
#725=AXIS2_PLACEMENT_3D('',#1047,#857,#858);
#726=AXIS2_PLACEMENT_3D('',#1050,#859,#860);
#727=AXIS2_PLACEMENT_3D('',#1054,#862,#863);
#728=AXIS2_PLACEMENT_3D('',#1056,#865,#866);
#729=AXIS2_PLACEMENT_3D('',#1062,#870,#871);
#730=AXIS2_PLACEMENT_3D('',#1069,#875,#876);
#731=AXIS2_PLACEMENT_3D('',#1070,#877,#878);
#732=AXIS2_PLACEMENT_3D('',#1072,#879,#880);
#733=AXIS2_PLACEMENT_3D('',#1074,#882,#883);
#734=AXIS2_PLACEMENT_3D('',#1080,#887,#888);
#735=AXIS2_PLACEMENT_3D('',#1082,#890,#891);
#736=AXIS2_PLACEMENT_3D('',#1084,#893,#894);
#737=AXIS2_PLACEMENT_3D('',#1085,#895,#896);
#738=AXIS2_PLACEMENT_3D('',#1087,#897,#898);
#739=AXIS2_PLACEMENT_3D('',#1090,#900,#901);
#740=AXIS2_PLACEMENT_3D('',#1091,#902,#903);
#741=AXIS2_PLACEMENT_3D('',#1094,#904,#905);
#742=AXIS2_PLACEMENT_3D('',#1098,#907,#908);
#743=AXIS2_PLACEMENT_3D('',#1100,#910,#911);
#744=AXIS2_PLACEMENT_3D('',#1104,#913,#914);
#745=AXIS2_PLACEMENT_3D('',#1110,#918,#919);
#746=AXIS2_PLACEMENT_3D('',#1114,#922,#923);
#747=AXIS2_PLACEMENT_3D('',#1116,#924,#925);
#748=AXIS2_PLACEMENT_3D('',#1118,#927,#928);
#749=AXIS2_PLACEMENT_3D('',#1122,#931,#932);
#750=AXIS2_PLACEMENT_3D('',#1126,#935,#936);
#751=AXIS2_PLACEMENT_3D('',#1128,#938,#939);
#752=AXIS2_PLACEMENT_3D('',#1233,#940,#941);
#753=AXIS2_PLACEMENT_3D('',#1273,#942,#943);
#754=AXIS2_PLACEMENT_3D('',#1274,#944,#945);
#755=AXIS2_PLACEMENT_3D('',#1277,#947,#948);
#756=AXIS2_PLACEMENT_3D('',#1278,#949,#950);
#757=AXIS2_PLACEMENT_3D('',#1279,#951,#952);
#758=AXIS2_PLACEMENT_3D('',#1282,#953,#954);
#759=AXIS2_PLACEMENT_3D('',#1284,#955,#956);
#760=AXIS2_PLACEMENT_3D('',#1285,#957,#958);
#761=AXIS2_PLACEMENT_3D('',#1286,#959,#960);
#762=AXIS2_PLACEMENT_3D('',#1289,#962,#963);
#763=AXIS2_PLACEMENT_3D('',#1290,#964,#965);
#764=DIRECTION('axis',(0.,0.,1.));
#765=DIRECTION('refdir',(1.,0.,0.));
#766=DIRECTION('center_axis',(0.,-1.,0.));
#767=DIRECTION('ref_axis',(1.,0.,0.));
#768=DIRECTION('center_axis',(0.,-1.,0.));
#769=DIRECTION('ref_axis',(1.,0.,0.));
#770=DIRECTION('',(-0.707106781186547,-0.707106781186548,8.65956056235493E-17));
#771=DIRECTION('center_axis',(0.,1.,0.));
#772=DIRECTION('ref_axis',(1.,0.,0.));
#773=DIRECTION('center_axis',(0.,1.,0.));
#774=DIRECTION('ref_axis',(1.,0.,0.));
#775=DIRECTION('',(0.,-1.,0.));
#776=DIRECTION('center_axis',(0.,1.,0.));
#777=DIRECTION('ref_axis',(1.,0.,0.));
#778=DIRECTION('center_axis',(0.,1.,0.));
#779=DIRECTION('ref_axis',(1.,0.,0.));
#780=DIRECTION('center_axis',(0.,1.,0.));
#781=DIRECTION('ref_axis',(1.,0.,0.));
#782=DIRECTION('center_axis',(0.,1.,0.));
#783=DIRECTION('ref_axis',(1.,0.,0.));
#784=DIRECTION('',(0.,1.,0.));
#785=DIRECTION('center_axis',(0.,1.,0.));
#786=DIRECTION('ref_axis',(1.,0.,0.));
#787=DIRECTION('center_axis',(0.,-1.,0.));
#788=DIRECTION('ref_axis',(1.,0.,0.));
#789=DIRECTION('center_axis',(0.,1.,0.));
#790=DIRECTION('ref_axis',(1.,0.,0.));
#791=DIRECTION('center_axis',(0.,1.,0.));
#792=DIRECTION('ref_axis',(1.,0.,0.));
#793=DIRECTION('',(-0.342020143325669,0.939692620785908,-4.18853873767699E-17));
#794=DIRECTION('center_axis',(0.,-1.,0.));
#795=DIRECTION('ref_axis',(1.,0.,0.));
#796=DIRECTION('center_axis',(0.,-1.,0.));
#797=DIRECTION('ref_axis',(1.,0.,0.));
#798=DIRECTION('center_axis',(0.,-1.,0.));
#799=DIRECTION('ref_axis',(1.,0.,0.));
#800=DIRECTION('center_axis',(0.,-1.,0.));
#801=DIRECTION('ref_axis',(1.,0.,0.));
#802=DIRECTION('center_axis',(0.,-1.,0.));
#803=DIRECTION('ref_axis',(1.,0.,0.));
#804=DIRECTION('',(0.,1.,0.));
#805=DIRECTION('center_axis',(0.,0.,-1.));
#806=DIRECTION('ref_axis',(-1.,0.,0.));
#807=DIRECTION('center_axis',(0.,0.,-1.));
#808=DIRECTION('ref_axis',(-1.,0.,0.));
#809=DIRECTION('',(0.,0.,-1.));
#810=DIRECTION('center_axis',(0.,0.,1.));
#811=DIRECTION('ref_axis',(-1.,0.,0.));
#812=DIRECTION('center_axis',(0.,0.,1.));
#813=DIRECTION('ref_axis',(-0.707106781186547,0.707106781186548,0.));
#814=DIRECTION('center_axis',(0.,0.,-1.));
#815=DIRECTION('ref_axis',(-0.707106781186547,0.707106781186548,0.));
#816=DIRECTION('',(0.,0.,-1.));
#817=DIRECTION('center_axis',(0.,0.,1.));
#818=DIRECTION('ref_axis',(-0.707106781186547,0.707106781186548,0.));
#819=DIRECTION('',(0.,0.,1.));
#820=DIRECTION('center_axis',(0.,0.,-1.));
#821=DIRECTION('ref_axis',(-1.,0.,0.));
#822=DIRECTION('',(-1.,0.,0.));
#823=DIRECTION('center_axis',(0.,0.,1.));
#824=DIRECTION('ref_axis',(0.707106781186547,0.707106781186548,0.));
#825=DIRECTION('',(0.,1.,0.));
#826=DIRECTION('',(1.,0.,0.));
#827=DIRECTION('',(0.,1.,0.));
#828=DIRECTION('center_axis',(0.,1.,0.));
#829=DIRECTION('ref_axis',(0.,0.,1.));
#830=DIRECTION('',(1.,0.,0.));
#831=DIRECTION('',(0.,0.,1.));
#832=DIRECTION('center_axis',(0.,0.,-1.));
#833=DIRECTION('ref_axis',(0.707106781186547,0.707106781186548,0.));
#834=DIRECTION('center_axis',(0.,0.,-1.));
#835=DIRECTION('ref_axis',(0.707106781186547,0.707106781186548,0.));
#836=DIRECTION('',(0.,0.,-1.));
#837=DIRECTION('center_axis',(-1.,0.,0.));
#838=DIRECTION('ref_axis',(0.,0.,1.));
#839=DIRECTION('',(0.,0.,-1.));
#840=DIRECTION('',(0.,1.,0.));
#841=DIRECTION('center_axis',(1.,0.,0.));
#842=DIRECTION('ref_axis',(0.,0.,-1.));
#843=DIRECTION('',(0.,1.,0.));
#844=DIRECTION('',(0.,0.,1.));
#845=DIRECTION('center_axis',(0.,0.,1.));
#846=DIRECTION('ref_axis',(1.,0.,0.));
#847=DIRECTION('',(-1.,0.,0.));
#848=DIRECTION('center_axis',(0.,1.,0.));
#849=DIRECTION('ref_axis',(-1.,0.,0.));
#850=DIRECTION('center_axis',(0.,0.,-1.));
#851=DIRECTION('ref_axis',(-1.,0.,0.));
#852=DIRECTION('center_axis',(0.,0.,-1.));
#853=DIRECTION('ref_axis',(-1.,0.,0.));
#854=DIRECTION('',(0.,0.,-1.));
#855=DIRECTION('center_axis',(0.,0.,1.));
#856=DIRECTION('ref_axis',(-1.,0.,0.));
#857=DIRECTION('center_axis',(0.,0.,-1.));
#858=DIRECTION('ref_axis',(0.707106781186547,0.707106781186548,0.));
#859=DIRECTION('center_axis',(0.,0.,1.));
#860=DIRECTION('ref_axis',(0.707106781186547,0.707106781186548,0.));
#861=DIRECTION('',(0.,0.,1.));
#862=DIRECTION('center_axis',(0.,0.,-1.));
#863=DIRECTION('ref_axis',(0.707106781186547,0.707106781186548,0.));
#864=DIRECTION('',(0.,0.,-1.));
#865=DIRECTION('center_axis',(0.,1.,0.));
#866=DIRECTION('ref_axis',(0.,0.,1.));
#867=DIRECTION('',(-1.,0.,0.));
#868=DIRECTION('',(0.,0.,-1.));
#869=DIRECTION('',(1.,0.,0.));
#870=DIRECTION('center_axis',(0.,0.,-1.));
#871=DIRECTION('ref_axis',(-1.,0.,0.));
#872=DIRECTION('',(0.,1.,0.));
#873=DIRECTION('',(1.,0.,0.));
#874=DIRECTION('',(0.,1.,0.));
#875=DIRECTION('center_axis',(0.,0.,1.));
#876=DIRECTION('ref_axis',(-0.707106781186547,0.707106781186548,0.));
#877=DIRECTION('center_axis',(0.,0.,1.));
#878=DIRECTION('ref_axis',(-0.707106781186547,0.707106781186548,0.));
#879=DIRECTION('center_axis',(0.,0.,-1.));
#880=DIRECTION('ref_axis',(-0.707106781186547,0.707106781186548,0.));
#881=DIRECTION('',(0.,0.,1.));
#882=DIRECTION('center_axis',(0.,0.,1.));
#883=DIRECTION('ref_axis',(1.,0.,0.));
#884=DIRECTION('',(0.,1.,0.));
#885=DIRECTION('',(-1.,0.,0.));
#886=DIRECTION('',(0.,1.,0.));
#887=DIRECTION('center_axis',(-1.,0.,0.));
#888=DIRECTION('ref_axis',(0.,0.,1.));
#889=DIRECTION('',(0.,0.,-1.));
#890=DIRECTION('center_axis',(1.,0.,0.));
#891=DIRECTION('ref_axis',(0.,0.,-1.));
#892=DIRECTION('',(0.,0.,1.));
#893=DIRECTION('center_axis',(0.,1.,0.));
#894=DIRECTION('ref_axis',(-1.,0.,0.));
#895=DIRECTION('center_axis',(0.,0.,-1.));
#896=DIRECTION('ref_axis',(-1.,0.,0.));
#897=DIRECTION('center_axis',(0.,0.,-1.));
#898=DIRECTION('ref_axis',(-1.,0.,0.));
#899=DIRECTION('',(0.,0.,-1.));
#900=DIRECTION('center_axis',(0.,0.,1.));
#901=DIRECTION('ref_axis',(-1.,0.,0.));
#902=DIRECTION('center_axis',(0.,0.,1.));
#903=DIRECTION('ref_axis',(-0.707106781186547,0.707106781186548,0.));
#904=DIRECTION('center_axis',(0.,0.,-1.));
#905=DIRECTION('ref_axis',(-0.707106781186547,0.707106781186548,0.));
#906=DIRECTION('',(0.,0.,-1.));
#907=DIRECTION('center_axis',(0.,0.,1.));
#908=DIRECTION('ref_axis',(-0.707106781186547,0.707106781186548,0.));
#909=DIRECTION('',(0.,0.,1.));
#910=DIRECTION('center_axis',(0.,0.,-1.));
#911=DIRECTION('ref_axis',(-1.,0.,0.));
#912=DIRECTION('',(-1.,0.,0.));
#913=DIRECTION('center_axis',(0.,0.,1.));
#914=DIRECTION('ref_axis',(0.707106781186547,0.707106781186548,0.));
#915=DIRECTION('',(0.,1.,0.));
#916=DIRECTION('',(-1.,0.,0.));
#917=DIRECTION('',(0.,1.,0.));
#918=DIRECTION('center_axis',(0.,1.,0.));
#919=DIRECTION('ref_axis',(0.,0.,1.));
#920=DIRECTION('',(1.,0.,0.));
#921=DIRECTION('',(0.,0.,1.));
#922=DIRECTION('center_axis',(0.,0.,-1.));
#923=DIRECTION('ref_axis',(0.707106781186547,0.707106781186548,0.));
#924=DIRECTION('center_axis',(0.,0.,-1.));
#925=DIRECTION('ref_axis',(0.707106781186547,0.707106781186548,0.));
#926=DIRECTION('',(0.,0.,-1.));
#927=DIRECTION('center_axis',(1.,0.,0.));
#928=DIRECTION('ref_axis',(0.,0.,-1.));
#929=DIRECTION('',(0.,1.,0.));
#930=DIRECTION('',(0.,0.,-1.));
#931=DIRECTION('center_axis',(0.,0.,1.));
#932=DIRECTION('ref_axis',(1.,0.,0.));
#933=DIRECTION('',(0.,1.,0.));
#934=DIRECTION('',(1.,0.,0.));
#935=DIRECTION('center_axis',(-1.,0.,0.));
#936=DIRECTION('ref_axis',(0.,0.,1.));
#937=DIRECTION('',(0.,0.,1.));
#938=DIRECTION('center_axis',(0.,1.,0.));
#939=DIRECTION('ref_axis',(-1.,0.,0.));
#940=DIRECTION('center_axis',(1.,-9.96648795852977E-17,-5.46369598732851E-16));
#941=DIRECTION('ref_axis',(5.46369598732851E-16,0.,1.));
#942=DIRECTION('center_axis',(1.,0.,0.));
#943=DIRECTION('ref_axis',(0.,1.,0.));
#944=DIRECTION('center_axis',(0.,-1.,0.));
#945=DIRECTION('ref_axis',(1.,0.,0.));
#946=DIRECTION('',(0.,1.,0.));
#947=DIRECTION('center_axis',(0.,1.,0.));
#948=DIRECTION('ref_axis',(1.,0.,0.));
#949=DIRECTION('center_axis',(0.,-1.,0.));
#950=DIRECTION('ref_axis',(1.,0.,0.));
#951=DIRECTION('center_axis',(0.,1.,0.));
#952=DIRECTION('ref_axis',(0.,0.,-1.));
#953=DIRECTION('center_axis',(0.,-1.,0.));
#954=DIRECTION('ref_axis',(1.,0.,0.));
#955=DIRECTION('center_axis',(1.,0.,-1.22464679914735E-16));
#956=DIRECTION('ref_axis',(1.22464679914735E-16,0.,1.));
#957=DIRECTION('center_axis',(0.,-1.,0.));
#958=DIRECTION('ref_axis',(1.,0.,0.));
#959=DIRECTION('center_axis',(0.,-1.,0.));
#960=DIRECTION('ref_axis',(1.,0.,0.));
#961=DIRECTION('',(0.,1.,0.));
#962=DIRECTION('center_axis',(0.,1.,0.));
#963=DIRECTION('ref_axis',(1.,0.,0.));
#964=DIRECTION('center_axis',(0.,1.,0.));
#965=DIRECTION('ref_axis',(1.,0.,0.));
#966=CARTESIAN_POINT('',(0.,0.,0.));
#967=CARTESIAN_POINT('Origin',(0.,0.47,0.));
#968=CARTESIAN_POINT('',(-0.315,0.5,-3.85763741731416E-17));
#969=CARTESIAN_POINT('Origin',(0.,0.5,0.));
#970=CARTESIAN_POINT('',(-0.375,0.44,4.59242549680257E-17));
#971=CARTESIAN_POINT('',(-0.345,0.47,4.22503145705837E-17));
#972=CARTESIAN_POINT('Origin',(0.,0.44,0.));
#973=CARTESIAN_POINT('Origin',(0.,0.,0.));
#974=CARTESIAN_POINT('',(-0.375,0.,4.59242549680257E-17));
#975=CARTESIAN_POINT('',(-0.375,0.,4.59242549680257E-17));
#976=CARTESIAN_POINT('Origin',(0.,0.,0.));
#977=CARTESIAN_POINT('Origin',(0.,0.5,0.));
#978=CARTESIAN_POINT('Origin',(0.,-0.06,0.));
#979=CARTESIAN_POINT('',(-0.43061895078133,-0.06,-5.27356119726547E-17));
#980=CARTESIAN_POINT('Origin',(0.,-0.06,0.));
#981=CARTESIAN_POINT('',(-0.43061895078133,-0.01,-5.27356119726547E-17));
#982=CARTESIAN_POINT('',(-0.43061895078133,-0.06,5.27356119726547E-17));
#983=CARTESIAN_POINT('Origin',(0.,-0.01,0.));
#984=CARTESIAN_POINT('Origin',(0.,-0.01,0.));
#985=CARTESIAN_POINT('Origin',(0.,-0.01,0.));
#986=CARTESIAN_POINT('',(-0.48180148828669,-0.06,-5.90036650454726E-17));
#987=CARTESIAN_POINT('Origin',(0.,-0.06,0.));
#988=CARTESIAN_POINT('',(-0.5,-0.01,-6.12323399573677E-17));
#989=CARTESIAN_POINT('',(-0.5,-0.01,-6.12323399573677E-17));
#990=CARTESIAN_POINT('Origin',(0.,-0.01,0.));
#991=CARTESIAN_POINT('Origin',(0.,-0.06,0.));
#992=CARTESIAN_POINT('Origin',(0.,0.,0.));
#993=CARTESIAN_POINT('',(-0.5,0.,-6.12323399573677E-17));
#994=CARTESIAN_POINT('Origin',(0.,0.,0.));
#995=CARTESIAN_POINT('Origin',(0.,0.,0.));
#996=CARTESIAN_POINT('',(-0.5,0.,-6.12323399573677E-17));
#997=CARTESIAN_POINT('Origin',(0.,0.729999991177809,0.256085196574764));
#998=CARTESIAN_POINT('',(0.0316227762195164,0.729999991177809,0.256085196574764));
#999=CARTESIAN_POINT('Origin',(0.,0.729999991177809,0.256085196574764));
#1000=CARTESIAN_POINT('',(0.0316227762195164,0.729999991177809,0.203914797866047));
#1001=CARTESIAN_POINT('',(0.0316227762195164,0.729999991177809,0.256085196574764));
#1002=CARTESIAN_POINT('Origin',(0.,0.729999991177809,0.203914797866047));
#1003=CARTESIAN_POINT('Origin',(-0.0495696098488442,0.72,0.216957397543226));
#1004=CARTESIAN_POINT('',(-0.129569609848844,0.72,0.256085196574764));
#1005=CARTESIAN_POINT('',(-0.0495696098488442,0.8,0.256085196574764));
#1006=CARTESIAN_POINT('Origin',(-0.0495696098488442,0.72,0.256085196574764));
#1007=CARTESIAN_POINT('',(-0.0495696098488442,0.8,0.203914797866047));
#1008=CARTESIAN_POINT('',(-0.0495696098488442,0.8,0.216957397543226));
#1009=CARTESIAN_POINT('',(-0.129569609848844,0.72,0.203914797866047));
#1010=CARTESIAN_POINT('Origin',(-0.0495696098488442,0.72,0.203914797866047));
#1011=CARTESIAN_POINT('',(-0.129569609848844,0.72,0.216957397543226));
#1012=CARTESIAN_POINT('Origin',(0.129569609848844,0.5,0.203914797866047));
#1013=CARTESIAN_POINT('',(0.0495696098488442,0.8,0.203914797866047));
#1014=CARTESIAN_POINT('',(-0.129569609848844,0.8,0.203914797866047));
#1015=CARTESIAN_POINT('',(0.129569609848844,0.72,0.203914797866047));
#1016=CARTESIAN_POINT('Origin',(0.0495696098488442,0.72,0.203914797866047));
#1017=CARTESIAN_POINT('',(0.129569609848844,0.5,0.203914797866047));
#1018=CARTESIAN_POINT('',(0.129569609848844,0.5,0.203914797866047));
#1019=CARTESIAN_POINT('',(-0.129569609848844,0.5,0.203914797866047));
#1020=CARTESIAN_POINT('',(-0.129569609848844,0.5,0.203914797866047));
#1021=CARTESIAN_POINT('',(-0.129569609848844,0.5,0.203914797866047));
#1022=CARTESIAN_POINT('Origin',(0.,0.8,0.229999997220405));
#1023=CARTESIAN_POINT('',(0.0495696098488442,0.8,0.256085196574764));
#1024=CARTESIAN_POINT('',(0.129569609848844,0.8,0.256085196574764));
#1025=CARTESIAN_POINT('',(0.0495696098488442,0.8,0.243042596897585));
#1026=CARTESIAN_POINT('Origin',(0.0495696098488442,0.72,0.243042596897585));
#1027=CARTESIAN_POINT('',(0.129569609848844,0.72,0.256085196574764));
#1028=CARTESIAN_POINT('Origin',(0.0495696098488442,0.72,0.256085196574764));
#1029=CARTESIAN_POINT('',(0.129569609848844,0.72,0.243042596897585));
#1030=CARTESIAN_POINT('Origin',(-0.129569609848844,0.5,0.203914797866047));
#1031=CARTESIAN_POINT('',(-0.129569609848844,0.5,0.256085196574764));
#1032=CARTESIAN_POINT('',(-0.129569609848844,0.5,0.256085196574764));
#1033=CARTESIAN_POINT('',(-0.129569609848844,0.5,0.256085196574764));
#1034=CARTESIAN_POINT('Origin',(0.129569609848844,0.5,0.256085196574764));
#1035=CARTESIAN_POINT('',(0.129569609848844,0.5,0.256085196574764));
#1036=CARTESIAN_POINT('',(0.129569609848844,0.5,0.256085196574764));
#1037=CARTESIAN_POINT('',(0.129569609848844,0.5,0.203914797866047));
#1038=CARTESIAN_POINT('Origin',(-0.129569609848844,0.5,0.256085196574764));
#1039=CARTESIAN_POINT('',(0.129569609848844,0.5,0.256085196574764));
#1040=CARTESIAN_POINT('Origin',(0.,0.5,0.229999997220405));
#1041=CARTESIAN_POINT('Origin',(0.,0.729999991177809,0.256085196574764));
#1042=CARTESIAN_POINT('',(0.0316227762195164,0.729999991177809,-0.203914797866047));
#1043=CARTESIAN_POINT('Origin',(0.,0.729999991177809,-0.203914797866047));
#1044=CARTESIAN_POINT('',(0.0316227762195164,0.729999991177809,-0.256085196574764));
#1045=CARTESIAN_POINT('',(0.0316227762195164,0.729999991177809,0.256085196574764));
#1046=CARTESIAN_POINT('Origin',(0.,0.729999991177809,-0.256085196574764));
#1047=CARTESIAN_POINT('Origin',(0.0495696098488443,0.72,-0.216957397543226));
#1048=CARTESIAN_POINT('',(0.129569609848844,0.72,-0.256085196574764));
#1049=CARTESIAN_POINT('',(0.0495696098488443,0.8,-0.256085196574764));
#1050=CARTESIAN_POINT('Origin',(0.0495696098488443,0.72,-0.256085196574764));
#1051=CARTESIAN_POINT('',(0.0495696098488443,0.8,-0.203914797866047));
#1052=CARTESIAN_POINT('',(0.0495696098488443,0.8,-0.216957397543226));
#1053=CARTESIAN_POINT('',(0.129569609848844,0.72,-0.203914797866047));
#1054=CARTESIAN_POINT('Origin',(0.0495696098488443,0.72,-0.203914797866047));
#1055=CARTESIAN_POINT('',(0.129569609848844,0.72,-0.216957397543226));
#1056=CARTESIAN_POINT('Origin',(4.37095678986282E-17,0.8,-0.229999997220405));
#1057=CARTESIAN_POINT('',(-0.0495696098488442,0.8,-0.256085196574764));
#1058=CARTESIAN_POINT('',(-0.129569609848844,0.8,-0.256085196574764));
#1059=CARTESIAN_POINT('',(-0.0495696098488442,0.8,-0.203914797866047));
#1060=CARTESIAN_POINT('',(-0.0495696098488442,0.8,-0.243042596897585));
#1061=CARTESIAN_POINT('',(0.129569609848844,0.8,-0.203914797866047));
#1062=CARTESIAN_POINT('Origin',(0.129569609848844,0.5,-0.256085196574764));
#1063=CARTESIAN_POINT('',(0.129569609848844,0.5,-0.256085196574764));
#1064=CARTESIAN_POINT('',(0.129569609848844,0.5,-0.256085196574764));
#1065=CARTESIAN_POINT('',(-0.129569609848844,0.5,-0.256085196574764));
#1066=CARTESIAN_POINT('',(-0.129569609848844,0.5,-0.256085196574764));
#1067=CARTESIAN_POINT('',(-0.129569609848844,0.72,-0.256085196574764));
#1068=CARTESIAN_POINT('',(-0.129569609848844,0.5,-0.256085196574764));
#1069=CARTESIAN_POINT('Origin',(-0.0495696098488442,0.72,-0.256085196574764));
#1070=CARTESIAN_POINT('Origin',(-0.0495696098488442,0.72,-0.243042596897585));
#1071=CARTESIAN_POINT('',(-0.129569609848844,0.72,-0.203914797866047));
#1072=CARTESIAN_POINT('Origin',(-0.0495696098488442,0.72,-0.203914797866047));
#1073=CARTESIAN_POINT('',(-0.129569609848844,0.72,-0.243042596897585));
#1074=CARTESIAN_POINT('Origin',(-0.129569609848844,0.5,-0.203914797866047));
#1075=CARTESIAN_POINT('',(-0.129569609848844,0.5,-0.203914797866047));
#1076=CARTESIAN_POINT('',(-0.129569609848844,0.5,-0.203914797866047));
#1077=CARTESIAN_POINT('',(0.129569609848844,0.5,-0.203914797866047));
#1078=CARTESIAN_POINT('',(0.129569609848844,0.5,-0.203914797866047));
#1079=CARTESIAN_POINT('',(0.129569609848844,0.5,-0.203914797866047));
#1080=CARTESIAN_POINT('Origin',(-0.129569609848844,0.5,-0.256085196574764));
#1081=CARTESIAN_POINT('',(-0.129569609848844,0.5,-0.203914797866047));
#1082=CARTESIAN_POINT('Origin',(0.129569609848844,0.5,-0.203914797866047));
#1083=CARTESIAN_POINT('',(0.129569609848844,0.5,-0.256085196574764));
#1084=CARTESIAN_POINT('Origin',(4.37095678986282E-17,0.5,-0.229999997220405));
#1085=CARTESIAN_POINT('Origin',(0.,0.729999991177809,0.256085196574764));
#1086=CARTESIAN_POINT('',(0.0316227762195164,0.729999991177809,0.0260851993543588));
#1087=CARTESIAN_POINT('Origin',(0.,0.729999991177809,0.0260851993543588));
#1088=CARTESIAN_POINT('',(0.0316227762195164,0.729999991177809,-0.0260851993543588));
#1089=CARTESIAN_POINT('',(0.0316227762195164,0.729999991177809,0.256085196574764));
#1090=CARTESIAN_POINT('Origin',(0.,0.729999991177809,-0.0260851993543588));
#1091=CARTESIAN_POINT('Origin',(-0.0495696098488442,0.72,-0.0130425996771794));
#1092=CARTESIAN_POINT('',(-0.129569609848844,0.72,0.0260851993543588));
#1093=CARTESIAN_POINT('',(-0.0495696098488442,0.8,0.0260851993543588));
#1094=CARTESIAN_POINT('Origin',(-0.0495696098488442,0.72,0.0260851993543588));
#1095=CARTESIAN_POINT('',(-0.0495696098488442,0.8,-0.0260851993543588));
#1096=CARTESIAN_POINT('',(-0.0495696098488442,0.8,-0.0130425996771794));
#1097=CARTESIAN_POINT('',(-0.129569609848844,0.72,-0.0260851993543588));
#1098=CARTESIAN_POINT('Origin',(-0.0495696098488442,0.72,-0.0260851993543588));
#1099=CARTESIAN_POINT('',(-0.129569609848844,0.72,-0.0130425996771794));
#1100=CARTESIAN_POINT('Origin',(0.129569609848844,0.5,-0.0260851993543588));
#1101=CARTESIAN_POINT('',(0.0495696098488441,0.8,-0.0260851993543588));
#1102=CARTESIAN_POINT('',(0.129569609848844,0.8,-0.0260851993543588));
#1103=CARTESIAN_POINT('',(0.129569609848844,0.72,-0.0260851993543588));
#1104=CARTESIAN_POINT('Origin',(0.0495696098488441,0.72,-0.0260851993543588));
#1105=CARTESIAN_POINT('',(0.129569609848844,0.5,-0.0260851993543588));
#1106=CARTESIAN_POINT('',(0.129569609848844,0.5,-0.0260851993543588));
#1107=CARTESIAN_POINT('',(-0.129569609848844,0.5,-0.0260851993543588));
#1108=CARTESIAN_POINT('',(0.129569609848844,0.5,-0.0260851993543588));
#1109=CARTESIAN_POINT('',(-0.129569609848844,0.5,-0.0260851993543588));
#1110=CARTESIAN_POINT('Origin',(-2.18547839493141E-17,0.8,0.));
#1111=CARTESIAN_POINT('',(0.0495696098488441,0.8,0.0260851993543588));
#1112=CARTESIAN_POINT('',(-0.129569609848844,0.8,0.0260851993543588));
#1113=CARTESIAN_POINT('',(0.0495696098488441,0.8,0.0130425996771794));
#1114=CARTESIAN_POINT('Origin',(0.0495696098488441,0.72,0.0130425996771794));
#1115=CARTESIAN_POINT('',(0.129569609848844,0.72,0.0260851993543588));
#1116=CARTESIAN_POINT('Origin',(0.0495696098488441,0.72,0.0260851993543588));
#1117=CARTESIAN_POINT('',(0.129569609848844,0.72,0.0130425996771794));
#1118=CARTESIAN_POINT('Origin',(0.129569609848844,0.5,0.0260851993543588));
#1119=CARTESIAN_POINT('',(0.129569609848844,0.5,0.0260851993543588));
#1120=CARTESIAN_POINT('',(0.129569609848844,0.5,0.0260851993543588));
#1121=CARTESIAN_POINT('',(0.129569609848844,0.5,0.0260851993543588));
#1122=CARTESIAN_POINT('Origin',(-0.129569609848844,0.5,0.0260851993543588));
#1123=CARTESIAN_POINT('',(-0.129569609848844,0.5,0.0260851993543588));
#1124=CARTESIAN_POINT('',(-0.129569609848844,0.5,0.0260851993543588));
#1125=CARTESIAN_POINT('',(-0.129569609848844,0.5,0.0260851993543588));
#1126=CARTESIAN_POINT('Origin',(-0.129569609848844,0.5,-0.0260851993543588));
#1127=CARTESIAN_POINT('',(-0.129569609848844,0.5,-0.0260851993543588));
#1128=CARTESIAN_POINT('Origin',(-2.18547839493141E-17,0.5,0.));
#1129=CARTESIAN_POINT('Ctrl Pts',(1.63910879619856E-17,-0.200626608770785,
0.404065813834079));
#1130=CARTESIAN_POINT('Ctrl Pts',(0.0619836340951784,-0.200626608770785,
0.404065813834079));
#1131=CARTESIAN_POINT('Ctrl Pts',(0.185704624035844,-0.19048503684597,0.375558667849113));
#1132=CARTESIAN_POINT('Ctrl Pts',(0.331458839810911,-0.153648822313939,
0.25927400925046));
#1133=CARTESIAN_POINT('Ctrl Pts',(0.412722014348042,-0.112306870875145,
0.0938675922770124));
#1134=CARTESIAN_POINT('Ctrl Pts',(0.41556572880246,-0.0765500195046224,
-0.113457643590883));
#1135=CARTESIAN_POINT('Ctrl Pts',(0.320320712384737,-0.0632828641882336,
-0.281391325447126));
#1136=CARTESIAN_POINT('Ctrl Pts',(0.182358387176951,-0.0604212980797052,
-0.375141787922418));
#1137=CARTESIAN_POINT('Ctrl Pts',(0.0227278960851274,-0.0600332084388,-0.425031846913125));
#1138=CARTESIAN_POINT('Ctrl Pts',(-0.147941760634606,-0.0598610986944443,
-0.399044356190449));
#1139=CARTESIAN_POINT('Ctrl Pts',(-0.320257103615938,-0.0632096987041159,
-0.281102926444544));
#1140=CARTESIAN_POINT('Ctrl Pts',(-0.404903092649277,-0.0751892484316165,
-0.132340286799475));
#1141=CARTESIAN_POINT('Ctrl Pts',(-0.417860338659845,-0.107659766561591,
0.0725179680599938));
#1142=CARTESIAN_POINT('Ctrl Pts',(-0.347830033364101,-0.149447022625258,
0.246475640681058));
#1143=CARTESIAN_POINT('Ctrl Pts',(-0.185613122823019,-0.190541490680824,
0.375497886818519));
#1144=CARTESIAN_POINT('Ctrl Pts',(-0.0619836340951789,-0.200626608770785,
0.404065813834079));
#1145=CARTESIAN_POINT('Ctrl Pts',(-8.19554398099279E-18,-0.200626608770785,
0.404065813834079));
#1146=CARTESIAN_POINT('Ctrl Pts',(1.67198910494611E-17,-0.20181529711799,
0.407493390440041));
#1147=CARTESIAN_POINT('Ctrl Pts',(0.0625636880464032,-0.20181529711799,
0.407493390440041));
#1148=CARTESIAN_POINT('Ctrl Pts',(0.187428512292414,-0.191506619982523,
0.378652007687973));
#1149=CARTESIAN_POINT('Ctrl Pts',(0.334192625214467,-0.154176287579352,
0.261250417560548));
#1150=CARTESIAN_POINT('Ctrl Pts',(0.415804900185472,-0.112417472867064,
0.0945504384192175));
#1151=CARTESIAN_POINT('Ctrl Pts',(0.418497003125213,-0.0764070482854738,
-0.11423421941891));
#1152=CARTESIAN_POINT('Ctrl Pts',(0.32259423810004,-0.0631511210967738,
-0.283362630957782));
#1153=CARTESIAN_POINT('Ctrl Pts',(0.183673684759113,-0.0603595817983633,
-0.3778344349716));
#1154=CARTESIAN_POINT('Ctrl Pts',(0.0228960159971927,-0.060027028490267,
-0.428124112445712));
#1155=CARTESIAN_POINT('Ctrl Pts',(-0.149018866515879,-0.0598199752332907,
-0.401922684851664));
#1156=CARTESIAN_POINT('Ctrl Pts',(-0.322529294348703,-0.0630763684282547,
-0.283072092165854));
#1157=CARTESIAN_POINT('Ctrl Pts',(-0.40776329618378,-0.0750494196561694,
-0.133250254757369));
#1158=CARTESIAN_POINT('Ctrl Pts',(-0.420949496621479,-0.107730897900671,
0.0730486524954398));
#1159=CARTESIAN_POINT('Ctrl Pts',(-0.3506736148918,-0.149918364217592,0.248327462484797));
#1160=CARTESIAN_POINT('Ctrl Pts',(-0.187338213794006,-0.191563780504216,
0.378591519810257));
#1161=CARTESIAN_POINT('Ctrl Pts',(-0.0625636880464028,-0.20181529711799,
0.407493390440041));
#1162=CARTESIAN_POINT('Ctrl Pts',(-8.44892750678128E-18,-0.20181529711799,
0.407493390440041));
#1163=CARTESIAN_POINT('Ctrl Pts',(1.79283584086468E-17,-0.202272752935436,
0.414989951995731));
#1164=CARTESIAN_POINT('Ctrl Pts',(0.0637208009500465,-0.202272752935436,
0.414989951995731));
#1165=CARTESIAN_POINT('Ctrl Pts',(0.190865420822425,-0.191700403523626,
0.385433273266402));
#1166=CARTESIAN_POINT('Ctrl Pts',(0.339647365863035,-0.153611441434624,
0.265643407818736));
#1167=CARTESIAN_POINT('Ctrl Pts',(0.421959525840016,-0.111231764414223,
0.0962045760246378));
#1168=CARTESIAN_POINT('Ctrl Pts',(0.424350895755059,-0.0748479547733378,
-0.115627663535968));
#1169=CARTESIAN_POINT('Ctrl Pts',(0.327134418966297,-0.0616006647825165,
-0.287222621604457));
#1170=CARTESIAN_POINT('Ctrl Pts',(0.186300098001546,-0.0589050527998714,
-0.383182181254772));
#1171=CARTESIAN_POINT('Ctrl Pts',(0.0232316505500131,-0.0586502833444075,
-0.434295381221154));
#1172=CARTESIAN_POINT('Ctrl Pts',(-0.151169488923444,-0.0583938843511126,
-0.407653270743654));
#1173=CARTESIAN_POINT('Ctrl Pts',(-0.327066871550547,-0.0615236157968325,
-0.286927833308472));
#1174=CARTESIAN_POINT('Ctrl Pts',(-0.413475195188834,-0.073494007937549,
-0.134918598906777));
#1175=CARTESIAN_POINT('Ctrl Pts',(-0.427116980094075,-0.106487638452479,
0.0743826732738817));
#1176=CARTESIAN_POINT('Ctrl Pts',(-0.356347737859162,-0.149267400157437,
0.252453771164794));
#1177=CARTESIAN_POINT('Ctrl Pts',(-0.190777524723915,-0.191758578934783,
0.385373630763964));
#1178=CARTESIAN_POINT('Ctrl Pts',(-0.0637208009500441,-0.202272752935436,
0.414989951995731));
#1179=CARTESIAN_POINT('Ctrl Pts',(-9.09232105773461E-18,-0.202272752935436,
0.414989951995731));
#1180=CARTESIAN_POINT('Ctrl Pts',(2.13721945266244E-17,-0.19617286470043,
0.426698107430863));
#1181=CARTESIAN_POINT('Ctrl Pts',(0.0651657547972094,-0.19617286470043,
0.426698107430863));
#1182=CARTESIAN_POINT('Ctrl Pts',(0.195188868744541,-0.185528811105555,
0.396225588779715));
#1183=CARTESIAN_POINT('Ctrl Pts',(0.346895321162386,-0.147238473845501,
0.273130072793238));
#1184=CARTESIAN_POINT('Ctrl Pts',(0.430527691454726,-0.104689707977013,
0.0995638824909597));
#1185=CARTESIAN_POINT('Ctrl Pts',(0.432722518623957,-0.0681858182795227,
-0.117050395143117));
#1186=CARTESIAN_POINT('Ctrl Pts',(0.333608119254703,-0.0549050162007488,
-0.292475961500797));
#1187=CARTESIAN_POINT('Ctrl Pts',(0.190016361046221,-0.0522087198001716,
-0.390659648972099));
#1188=CARTESIAN_POINT('Ctrl Pts',(0.023701150719264,-0.0519591167566527,
-0.442981361463241));
#1189=CARTESIAN_POINT('Ctrl Pts',(-0.154199548299438,-0.0516981889300465,
-0.41569999924419));
#1190=CARTESIAN_POINT('Ctrl Pts',(-0.333537696290464,-0.0548275574058585,
-0.292175458674649));
#1191=CARTESIAN_POINT('Ctrl Pts',(-0.421637980786083,-0.0668286418745844,
-0.136769121626949));
#1192=CARTESIAN_POINT('Ctrl Pts',(-0.435744967427854,-0.0999293741407826,
0.0772412294173119));
#1193=CARTESIAN_POINT('Ctrl Pts',(-0.363919583085191,-0.142871649997871,
0.259571241696007));
#1194=CARTESIAN_POINT('Ctrl Pts',(-0.195101466424641,-0.18558718351681,
0.396166811400914));
#1195=CARTESIAN_POINT('Ctrl Pts',(-0.0651657547972047,-0.19617286470043,
0.426698107430863));
#1196=CARTESIAN_POINT('Ctrl Pts',(-1.03809323604797E-17,-0.19617286470043,
0.426698107430863));
#1197=CARTESIAN_POINT('Ctrl Pts',(2.41146589028932E-17,-0.187172440721811,
0.43061895078133));
#1198=CARTESIAN_POINT('Ctrl Pts',(0.0652955475543317,-0.187172440721811,
0.43061895078133));
#1199=CARTESIAN_POINT('Ctrl Pts',(0.19557704490851,-0.176790195902965,0.400190203012699));
#1200=CARTESIAN_POINT('Ctrl Pts',(0.348340904382139,-0.139219884623016,
0.276664780417928));
#1201=CARTESIAN_POINT('Ctrl Pts',(0.433004097667911,-0.0972180163672053,
0.101781617589957));
#1202=CARTESIAN_POINT('Ctrl Pts',(0.435577413007391,-0.0610028116069656,
-0.116887156799399));
#1203=CARTESIAN_POINT('Ctrl Pts',(0.335779250224622,-0.0476659293010114,
-0.293971662465131));
#1204=CARTESIAN_POINT('Ctrl Pts',(0.191209271979356,-0.0448529856063082,
-0.392968219878096));
#1205=CARTESIAN_POINT('Ctrl Pts',(0.0238405663495427,-0.0445156067740056,
-0.445687421944717));
#1206=CARTESIAN_POINT('Ctrl Pts',(-0.15514523132693,-0.0443089350164114,
-0.418212720103545));
#1207=CARTESIAN_POINT('Ctrl Pts',(-0.335711394541247,-0.0475907111943885,
-0.293667442862855));
#1208=CARTESIAN_POINT('Ctrl Pts',(-0.424410531998737,-0.0596368356645645,
-0.13679476029061));
#1209=CARTESIAN_POINT('Ctrl Pts',(-0.438319308918456,-0.0925050243861886,
0.0792518519612107));
#1210=CARTESIAN_POINT('Ctrl Pts',(-0.365490649360988,-0.134935019077439,
0.263064370929529));
#1211=CARTESIAN_POINT('Ctrl Pts',(-0.195485507367441,-0.176847570075381,
0.40012873167925));
#1212=CARTESIAN_POINT('Ctrl Pts',(-0.0652955475543267,-0.187172440721811,
0.43061895078133));
#1213=CARTESIAN_POINT('Ctrl Pts',(-1.11021902285659E-17,-0.187172440721811,
0.43061895078133));
#1214=CARTESIAN_POINT('Ctrl Pts',(2.53575997694445E-17,-0.181730672801625,
0.43061895078133));
#1215=CARTESIAN_POINT('Ctrl Pts',(0.0650026683592926,-0.181730672801625,
0.43061895078133));
#1216=CARTESIAN_POINT('Ctrl Pts',(0.194749731363817,-0.171509479069272,
0.400488596783342));
#1217=CARTESIAN_POINT('Ctrl Pts',(0.347603191608616,-0.134384062231556,
0.277582644361432));
#1218=CARTESIAN_POINT('Ctrl Pts',(0.43282444817691,-0.0927175338016272,
0.102757921480469));
#1219=CARTESIAN_POINT('Ctrl Pts',(0.435806671311895,-0.0566799542403347,
-0.116372494195324));
#1220=CARTESIAN_POINT('Ctrl Pts',(0.335922559877417,-0.0433086380606183,
-0.293868385407397));
#1221=CARTESIAN_POINT('Ctrl Pts',(0.191240509486696,-0.0404246057044862,
-0.39295703578809));
#1222=CARTESIAN_POINT('Ctrl Pts',(0.0238349027657434,-0.0400334691593216,
-0.445687854199842));
#1223=CARTESIAN_POINT('Ctrl Pts',(-0.155147553759989,-0.0398600081758245,
-0.418220625617695));
#1224=CARTESIAN_POINT('Ctrl Pts',(-0.335855852918987,-0.0432348981519303,
-0.293563564853104));
#1225=CARTESIAN_POINT('Ctrl Pts',(-0.424624690587161,-0.0553084997098449,
-0.136330322474334));
#1226=CARTESIAN_POINT('Ctrl Pts',(-0.438213044635288,-0.0880339449225632,
0.0801926413320438));
#1227=CARTESIAN_POINT('Ctrl Pts',(-0.36477177619902,-0.130149274078305,
0.264055531693045));
#1228=CARTESIAN_POINT('Ctrl Pts',(-0.194653773405262,-0.171566376125,0.400424354857154));
#1229=CARTESIAN_POINT('Ctrl Pts',(-0.0650026683592882,-0.181730672801625,
0.43061895078133));
#1230=CARTESIAN_POINT('Ctrl Pts',(-1.13287916429955E-17,-0.181730672801625,
0.43061895078133));
#1231=CARTESIAN_POINT('',(-1.50251639651534E-17,-0.181730672801625,0.43061895078133));
#1232=CARTESIAN_POINT('',(1.63910879619856E-17,-0.200626608770785,0.404065813834079));
#1233=CARTESIAN_POINT('Origin',(2.18547839493141E-17,-0.181730672801625,
0.41061895078133));
#1234=CARTESIAN_POINT('Ctrl Pts',(1.63910879619856E-17,-0.200626608770785,
0.404065813834079));
#1235=CARTESIAN_POINT('Ctrl Pts',(0.0619836340951784,-0.200626608770785,
0.404065813834079));
#1236=CARTESIAN_POINT('Ctrl Pts',(0.185704624035844,-0.19048503684597,0.375558667849113));
#1237=CARTESIAN_POINT('Ctrl Pts',(0.331458839810911,-0.153648822313939,
0.25927400925046));
#1238=CARTESIAN_POINT('Ctrl Pts',(0.412722014348042,-0.112306870875145,
0.0938675922770124));
#1239=CARTESIAN_POINT('Ctrl Pts',(0.41556572880246,-0.0765500195046224,
-0.113457643590883));
#1240=CARTESIAN_POINT('Ctrl Pts',(0.320320712384737,-0.0632828641882336,
-0.281391325447126));
#1241=CARTESIAN_POINT('Ctrl Pts',(0.182358387176951,-0.0604212980797052,
-0.375141787922418));
#1242=CARTESIAN_POINT('Ctrl Pts',(0.0227278960851274,-0.0600332084388,-0.425031846913125));
#1243=CARTESIAN_POINT('Ctrl Pts',(-0.147941760634606,-0.0598610986944443,
-0.399044356190449));
#1244=CARTESIAN_POINT('Ctrl Pts',(-0.320257103615938,-0.0632096987041159,
-0.281102926444544));
#1245=CARTESIAN_POINT('Ctrl Pts',(-0.404903092649277,-0.0751892484316165,
-0.132340286799475));
#1246=CARTESIAN_POINT('Ctrl Pts',(-0.417860338659845,-0.107659766561591,
0.0725179680599938));
#1247=CARTESIAN_POINT('Ctrl Pts',(-0.347830033364101,-0.149447022625258,
0.246475640681058));
#1248=CARTESIAN_POINT('Ctrl Pts',(-0.185613122823019,-0.190541490680824,
0.375497886818519));
#1249=CARTESIAN_POINT('Ctrl Pts',(-0.0619836340951789,-0.200626608770785,
0.404065813834079));
#1250=CARTESIAN_POINT('Ctrl Pts',(-8.19554398099279E-18,-0.200626608770785,
0.404065813834079));
#1251=CARTESIAN_POINT('',(-0.43070167589827,-0.0763304069994924,1.22008891480055E-5));
#1252=CARTESIAN_POINT('Ctrl Pts',(-1.13287916429955E-17,-0.181730672801625,
0.43061895078133));
#1253=CARTESIAN_POINT('Ctrl Pts',(-0.0650026683592882,-0.181730672801625,
0.43061895078133));
#1254=CARTESIAN_POINT('Ctrl Pts',(-0.194653773405262,-0.171566376125,0.400424354857154));
#1255=CARTESIAN_POINT('Ctrl Pts',(-0.36477177619902,-0.130149274078305,
0.264055531693045));
#1256=CARTESIAN_POINT('Ctrl Pts',(-0.426491040998718,-0.0947559971423905,
0.1095391043675));
#1257=CARTESIAN_POINT('Ctrl Pts',(-0.430690189301173,-0.0782845403351273,
0.0120650609731105));
#1258=CARTESIAN_POINT('Ctrl Pts',(-0.43070167589827,-0.0763304069994924,
1.22008891480123E-5));
#1259=CARTESIAN_POINT('Ctrl Pts',(-0.43070167589827,-0.0763304069994924,
1.22008891480123E-5));
#1260=CARTESIAN_POINT('Ctrl Pts',(-0.430730957713326,-0.071348899382885,
-0.0307131407317474));
#1261=CARTESIAN_POINT('Ctrl Pts',(-0.4183719827968,-0.0544580582204441,
-0.147405532484412));
#1262=CARTESIAN_POINT('Ctrl Pts',(-0.335855852918987,-0.0432348981519303,
-0.293563564853104));
#1263=CARTESIAN_POINT('Ctrl Pts',(-0.155147553759989,-0.0398600081758245,
-0.418220625617695));
#1264=CARTESIAN_POINT('Ctrl Pts',(0.0238349027657434,-0.0400334691593216,
-0.445687854199842));
#1265=CARTESIAN_POINT('Ctrl Pts',(0.191240509486696,-0.0404246057044862,
-0.39295703578809));
#1266=CARTESIAN_POINT('Ctrl Pts',(0.335922559877417,-0.0433086380606183,
-0.293868385407397));
#1267=CARTESIAN_POINT('Ctrl Pts',(0.435806671311895,-0.0566799542403347,
-0.116372494195324));
#1268=CARTESIAN_POINT('Ctrl Pts',(0.43282444817691,-0.0927175338016272,
0.102757921480469));
#1269=CARTESIAN_POINT('Ctrl Pts',(0.347603191608616,-0.134384062231556,
0.277582644361432));
#1270=CARTESIAN_POINT('Ctrl Pts',(0.194749731363817,-0.171509479069272,
0.400488596783342));
#1271=CARTESIAN_POINT('Ctrl Pts',(0.0650026683592926,-0.181730672801625,
0.43061895078133));
#1272=CARTESIAN_POINT('Ctrl Pts',(2.53575997694445E-17,-0.181730672801625,
0.43061895078133));
#1273=CARTESIAN_POINT('Origin',(0.,-2.60743574362691,-0.43061895078134));
#1274=CARTESIAN_POINT('Origin',(0.,-0.01,0.));
#1275=CARTESIAN_POINT('',(-0.43061895078133,-0.01,-5.27356119726547E-17));
#1276=CARTESIAN_POINT('',(-0.43061895078133,-0.01,-5.27356119726547E-17));
#1277=CARTESIAN_POINT('Origin',(0.,-0.01,0.));
#1278=CARTESIAN_POINT('Origin',(0.,-0.01,0.));
#1279=CARTESIAN_POINT('Origin',(0.,-0.05,-0.292984621180244));
#1280=CARTESIAN_POINT('',(-0.05,-0.05,-0.292984621180244));
#1281=CARTESIAN_POINT('',(6.12323399573677E-18,-0.05,-0.242984621180245));
#1282=CARTESIAN_POINT('Origin',(0.,-0.05,-0.292984621180244));
#1283=CARTESIAN_POINT('',(3.74939945665464E-34,-0.1,-0.292984621180244));
#1284=CARTESIAN_POINT('Origin',(0.,-0.05,-0.292984621180244));
#1285=CARTESIAN_POINT('Origin',(0.,-0.05,-0.292984621180244));
#1286=CARTESIAN_POINT('Origin',(0.,0.,-0.292984621180244));
#1287=CARTESIAN_POINT('',(-0.05,0.,-0.292984621180244));
#1288=CARTESIAN_POINT('',(-0.05,0.,-0.292984621180244));
#1289=CARTESIAN_POINT('Origin',(0.,0.,-0.292984621180244));
#1290=CARTESIAN_POINT('Origin',(0.,0.,-0.292984621180244));
#1291=UNCERTAINTY_MEASURE_WITH_UNIT(LENGTH_MEASURE(0.000393700787401575),
#1296,'DISTANCE_ACCURACY_VALUE',
'Maximum model space distance between geometric entities at asserted c
onnectivities');
#1292=UNCERTAINTY_MEASURE_WITH_UNIT(LENGTH_MEASURE(0.000393700787401575),
#1296,'DISTANCE_ACCURACY_VALUE',
'Maximum model space distance between geometric entities at asserted c
onnectivities');
#1293=(
GEOMETRIC_REPRESENTATION_CONTEXT(3)
GLOBAL_UNCERTAINTY_ASSIGNED_CONTEXT((#1291))
GLOBAL_UNIT_ASSIGNED_CONTEXT((#1296,#1300,#1301))
REPRESENTATION_CONTEXT('','3D')
);
#1294=(
GEOMETRIC_REPRESENTATION_CONTEXT(3)
GLOBAL_UNCERTAINTY_ASSIGNED_CONTEXT((#1292))
GLOBAL_UNIT_ASSIGNED_CONTEXT((#1296,#1300,#1301))
REPRESENTATION_CONTEXT('','3D')
);
#1295=DIMENSIONAL_EXPONENTS(1.,0.,0.,0.,0.,0.,0.);
#1296=(
CONVERSION_BASED_UNIT('inch',#1299)
LENGTH_UNIT()
NAMED_UNIT(#1295)
);
#1297=(
LENGTH_UNIT()
NAMED_UNIT(*)
SI_UNIT(.MILLI.,.METRE.)
);
#1298=(
LENGTH_UNIT()
NAMED_UNIT(*)
SI_UNIT($,.METRE.)
);
#1299=LENGTH_MEASURE_WITH_UNIT(LENGTH_MEASURE(25.4),#1297);
#1300=(
NAMED_UNIT(*)
PLANE_ANGLE_UNIT()
SI_UNIT($,.RADIAN.)
);
#1301=(
NAMED_UNIT(*)
SI_UNIT($,.STERADIAN.)
SOLID_ANGLE_UNIT()
);
#1302=SHAPE_DEFINITION_REPRESENTATION(#1303,#1304);
#1303=PRODUCT_DEFINITION_SHAPE('',$,#1306);
#1304=SHAPE_REPRESENTATION('',(#689),#1293);
#1305=PRODUCT_DEFINITION_CONTEXT('part definition',#1310,'design');
#1306=PRODUCT_DEFINITION('rocker switch','rocker switch v5',#1307,#1305);
#1307=PRODUCT_DEFINITION_FORMATION('',$,#1312);
#1308=PRODUCT_RELATED_PRODUCT_CATEGORY('rocker switch v5',
'rocker switch v5',(#1312));
#1309=APPLICATION_PROTOCOL_DEFINITION('international standard',
'automotive_design',2009,#1310);
#1310=APPLICATION_CONTEXT(
'Core Data for Automotive Mechanical Design Process');
#1311=PRODUCT_CONTEXT('part definition',#1310,'mechanical');
#1312=PRODUCT('rocker switch','rocker switch v5',$,(#1311));
#1313=PRESENTATION_STYLE_ASSIGNMENT((#1318));
#1314=PRESENTATION_STYLE_ASSIGNMENT((#1319));
#1315=PRESENTATION_STYLE_ASSIGNMENT((#1320));
#1316=PRESENTATION_STYLE_ASSIGNMENT((#1321));
#1317=PRESENTATION_STYLE_ASSIGNMENT((#1322));
#1318=SURFACE_STYLE_USAGE(.BOTH.,#1323);
#1319=SURFACE_STYLE_USAGE(.BOTH.,#1324);
#1320=SURFACE_STYLE_USAGE(.BOTH.,#1325);
#1321=SURFACE_STYLE_USAGE(.BOTH.,#1326);
#1322=SURFACE_STYLE_USAGE(.BOTH.,#1327);
#1323=SURFACE_SIDE_STYLE('',(#1328));
#1324=SURFACE_SIDE_STYLE('',(#1329));
#1325=SURFACE_SIDE_STYLE('',(#1330));
#1326=SURFACE_SIDE_STYLE('',(#1331));
#1327=SURFACE_SIDE_STYLE('',(#1332));
#1328=SURFACE_STYLE_FILL_AREA(#1333);
#1329=SURFACE_STYLE_FILL_AREA(#1334);
#1330=SURFACE_STYLE_FILL_AREA(#1335);
#1331=SURFACE_STYLE_FILL_AREA(#1336);
#1332=SURFACE_STYLE_FILL_AREA(#1337);
#1333=FILL_AREA_STYLE('Acier - Satin\X\E9',(#1338));
#1334=FILL_AREA_STYLE(
'PA 12 - Nylon - PA 603-CF (avec imprimantes 3D EOS P)',(#1339));
#1335=FILL_AREA_STYLE('Laiton - Poli',(#1340));
#1336=FILL_AREA_STYLE('Nickel - Poli',(#1341));
#1337=FILL_AREA_STYLE('Plastique - Translucide mat (vert)',(#1342));
#1338=FILL_AREA_STYLE_COLOUR('Acier - Satin\X\E9',#1343);
#1339=FILL_AREA_STYLE_COLOUR(
'PA 12 - Nylon - PA 603-CF (avec imprimantes 3D EOS P)',#1344);
#1340=FILL_AREA_STYLE_COLOUR('Laiton - Poli',#1345);
#1341=FILL_AREA_STYLE_COLOUR('Nickel - Poli',#1346);
#1342=FILL_AREA_STYLE_COLOUR('Plastique - Translucide mat (vert)',#1347);
#1343=COLOUR_RGB('Acier - Satin\X\E9',0.627450980392157,0.627450980392157,
0.627450980392157);
#1344=COLOUR_RGB(
'PA 12 - Nylon - PA 603-CF (avec imprimantes 3D EOS P)',0.247058823529412,
0.247058823529412,0.247058823529412);
#1345=COLOUR_RGB('Laiton - Poli',0.952941176470588,0.796078431372549,0.486274509803922);
#1346=COLOUR_RGB('Nickel - Poli',0.819607843137255,0.8,0.752941176470588);
#1347=COLOUR_RGB('Plastique - Translucide mat (vert)',0.266666666666667,
0.588235294117647,0.282352941176471);
ENDSEC;
END-ISO-10303-21;
